<svg width="838" height="1320" viewBox="0 0 838 1320" fill="none" xmlns="http://www.w3.org/2000/svg">
<g id="Group 42">
<g id="Group 2">
<g id="iPhone-X-Mockup">
<g id="phone">
<g id="body" filter="url(#filter0_d_18_2)">
<path fill-rule="evenodd" clip-rule="evenodd" d="M177.552 111.139H560.019C596.699 111.139 626.435 139.61 626.435 174.73V1045.27C626.435 1080.39 596.699 1108.86 560.019 1108.86H177.552C140.872 1108.86 111.136 1080.39 111.136 1045.27V174.73C111.136 139.61 140.872 111.139 177.552 111.139Z" fill="#213648"/>
</g>
<g id="frame">
<path id="reflect-frame-top" opacity="0.595562" fill-rule="evenodd" clip-rule="evenodd" d="M561.497 110H175.845C157.84 111.098 141.235 119.314 126.03 134.648C135.808 126.112 153.25 114.689 176.309 114.689C176.309 114.689 545.66 114.689 561.033 114.689C584.093 114.689 601.534 126.112 611.313 134.648C596.108 119.314 579.502 111.098 561.497 110Z" fill="url(#paint0_linear_18_2)" fill-opacity="0.65"/>
<path id="reflect-frame-right" opacity="0.75" fill-rule="evenodd" clip-rule="evenodd" d="M615.999 1035.34V179.963C615.999 157.013 607.564 148.529 602.532 143.081C597.5 137.633 597.286 134.854 604.516 138.967C611.746 143.081 626.207 155.061 626.207 179.963V1035.34C626.207 1060.24 611.746 1072.22 604.516 1076.34C597.286 1080.45 597.5 1077.67 602.532 1072.22C607.564 1066.78 615.999 1058.29 615.999 1035.34Z" fill="url(#paint1_linear_18_2)"/>
<path id="reflect-frame-left" opacity="0.75" fill-rule="evenodd" clip-rule="evenodd" d="M121.344 1035.34V179.963C121.344 157.013 129.779 148.529 134.811 143.081C139.842 137.633 140.057 134.854 132.827 138.967C125.597 143.081 111.136 155.061 111.136 179.963V1035.34C111.136 1060.24 125.597 1072.22 132.827 1076.34C140.057 1080.45 139.842 1077.67 134.811 1072.22C129.779 1066.78 121.344 1058.29 121.344 1035.34Z" fill="url(#paint2_linear_18_2)"/>
</g>
<g id="controls">
<path id="vol+" fill-rule="evenodd" clip-rule="evenodd" d="M106 317.113C106 314.904 107.791 313.113 110 313.113H111.929C114.138 313.113 115.929 314.904 115.929 317.113V437.814C115.929 440.024 114.138 441.814 111.929 441.814H110C107.791 441.814 106 440.024 106 437.814V317.113Z" fill="#2E423C"/>
<path id="power" fill-rule="evenodd" clip-rule="evenodd" d="M621.071 422.086C621.071 419.877 622.862 418.086 625.071 418.086H627C629.209 418.086 631 419.877 631 422.086V507.987C631 510.196 629.209 511.987 627 511.987H625.071C622.862 511.987 621.071 510.196 621.071 507.987V422.086Z" fill="#2E423C"/>
</g>
</g>
<g id="Screen" clip-path="url(#clip0_18_2)">
<path id="Screen Mask" fill-rule="evenodd" clip-rule="evenodd" d="M323.352 134.889L174.54 134.889C152.331 134.889 136.148 150.016 136.148 169.772V1014.55C136.148 1040.31 161.153 1063.14 189.427 1063.14H548.093C575.328 1063.14 601.371 1040.13 601.371 1014.55V172.055C601.371 148.376 583.792 135.03 562.98 134.889L411.808 134.889C411.235 134.983 400.851 139.253 396.462 150.016C392.073 160.779 383.242 169.359 373.573 169.359H362.343C357.747 169.359 345.647 164.899 339.521 150.016C333.394 135.132 323.925 134.983 323.352 134.889Z" fill="white"/>
<mask id="mask0_18_2" style="mask-type:luminance" maskUnits="userSpaceOnUse" x="136" y="134" width="466" height="930">
<path id="Screen Mask_2" fill-rule="evenodd" clip-rule="evenodd" d="M323.352 134.889L174.54 134.889C152.331 134.889 136.148 150.016 136.148 169.772V1014.55C136.148 1040.31 161.153 1063.14 189.427 1063.14H548.093C575.328 1063.14 601.371 1040.13 601.371 1014.55V172.055C601.371 148.376 583.792 135.03 562.98 134.889L411.808 134.889C411.235 134.983 400.851 139.253 396.462 150.016C392.073 160.779 383.242 169.359 373.573 169.359H362.343C357.747 169.359 345.647 164.899 339.521 150.016C333.394 135.132 323.925 134.983 323.352 134.889Z" fill="white"/>
</mask>
<g mask="url(#mask0_18_2)">
<rect id="Rectangle" x="136" y="134.889" width="466" height="930" fill="url(#paint3_linear_18_2)"/>
<path id="12:49" d="M295.008 392V357.344H286.752V352.064C289.397 352.064 291.531 351.819 293.152 351.328C294.795 350.816 296.021 350.091 296.832 349.152C297.643 348.192 298.123 347.051 298.272 345.728H304.48V392H295.008ZM314.991 392V387.392V385.024C314.991 382.677 315.428 380.651 316.303 378.944C317.178 377.216 318.33 375.723 319.759 374.464C321.21 373.184 322.788 372.064 324.495 371.104C326.223 370.144 327.951 369.237 329.679 368.384C331.407 367.531 332.986 366.677 334.415 365.824C335.866 364.949 337.028 363.979 337.903 362.912C338.778 361.845 339.215 360.587 339.215 359.136C339.215 357.28 338.564 355.765 337.263 354.592C335.983 353.419 334.223 352.832 331.983 352.832C329.658 352.832 327.684 353.504 326.063 354.848C324.442 356.192 323.439 358.219 323.055 360.928H314.127C314.17 357.984 314.852 355.317 316.175 352.928C317.519 350.517 319.524 348.608 322.191 347.2C324.858 345.792 328.207 345.088 332.239 345.088C335.695 345.088 338.671 345.675 341.167 346.848C343.684 348.021 345.626 349.653 346.991 351.744C348.356 353.835 349.039 356.277 349.039 359.072C349.039 361.397 348.612 363.403 347.759 365.088C346.906 366.773 345.775 368.213 344.367 369.408C342.959 370.603 341.412 371.648 339.727 372.544C338.042 373.44 336.356 374.272 334.671 375.04C333.007 375.808 331.471 376.597 330.063 377.408C328.655 378.197 327.524 379.093 326.671 380.096C325.818 381.099 325.391 382.304 325.391 383.712V384.128H348.975V392H314.991ZM365.408 359.712V369.728H355.168V359.712H365.408ZM365.408 381.824V391.808H355.168V381.824H365.408ZM392.903 345.728H402.087V373.92H409.223V381.76H402.087V392H393.095L393.127 381.76H371.815V374.08L392.903 345.728ZM380.455 373.92H393.127V356.96L380.455 373.92ZM430.871 392.704C427.991 392.704 425.303 392.149 422.807 391.04C420.311 389.931 418.273 388.373 416.695 386.368C415.116 384.341 414.231 381.973 414.039 379.264H422.935C423.319 381.056 424.172 382.517 425.495 383.648C426.817 384.757 428.481 385.312 430.487 385.312C432.705 385.312 434.647 384.789 436.311 383.744C437.996 382.699 439.255 381.035 440.087 378.752C440.94 376.469 441.239 373.483 440.983 369.792C440.385 370.923 439.553 371.915 438.487 372.768C437.441 373.6 436.215 374.251 434.807 374.72C433.399 375.168 431.831 375.392 430.103 375.392C426.967 375.392 424.183 374.805 421.751 373.632C419.34 372.437 417.441 370.752 416.055 368.576C414.689 366.379 414.007 363.776 414.007 360.768C414.007 357.739 414.732 355.04 416.183 352.672C417.633 350.304 419.66 348.448 422.263 347.104C424.865 345.76 427.916 345.088 431.415 345.088C435.34 345.088 438.721 346.027 441.559 347.904C444.417 349.76 446.604 352.405 448.119 355.84C449.655 359.253 450.423 363.275 450.423 367.904C450.423 373.429 449.633 378.037 448.055 381.728C446.497 385.397 444.257 388.149 441.335 389.984C438.412 391.797 434.924 392.704 430.871 392.704ZM431.703 367.968C433.004 367.968 434.263 367.68 435.479 367.104C436.716 366.507 437.729 365.76 438.519 364.864C439.308 363.968 439.703 363.04 439.703 362.08C439.724 360.011 439.393 358.24 438.711 356.768C438.049 355.275 437.111 354.133 435.895 353.344C434.7 352.555 433.303 352.16 431.703 352.16C430.231 352.16 428.919 352.501 427.767 353.184C426.615 353.867 425.708 354.827 425.047 356.064C424.385 357.301 424.055 358.731 424.055 360.352C424.055 362.763 424.759 364.64 426.167 365.984C427.575 367.307 429.42 367.968 431.703 367.968Z" fill="white"/>
</g>
</g>
</g>
</g>
<g id="Group 29" clip-path="url(#clip1_18_2)">
<g id="Rectangle_2" filter="url(#filter1_d_18_2)">
<rect x="150" y="444" width="436" height="174" rx="5" fill="#FBFCFE"/>
</g>
<g id="Group 28" clip-path="url(#clip2_18_2)">
<path id="PayAPI" d="M183.62 496V481.54H188.94C189.993 481.54 190.937 481.723 191.77 482.09C192.603 482.45 193.26 482.983 193.74 483.69C194.227 484.397 194.47 485.26 194.47 486.28C194.47 487.24 194.257 488.06 193.83 488.74C193.403 489.42 192.803 489.94 192.03 490.3C191.263 490.66 190.36 490.84 189.32 490.84H186.56V496H183.62ZM186.53 488.58H189.24C189.973 488.58 190.573 488.347 191.04 487.88C191.507 487.407 191.74 486.823 191.74 486.13C191.74 485.41 191.493 484.84 191 484.42C190.507 483.993 189.907 483.78 189.2 483.78H186.53V488.58ZM199.023 496.2C198.363 496.2 197.77 496.077 197.243 495.83C196.717 495.583 196.3 495.227 195.993 494.76C195.687 494.287 195.533 493.713 195.533 493.04C195.533 491.907 195.957 491.047 196.803 490.46C197.65 489.867 198.987 489.56 200.813 489.54L202.103 489.52V488.9C202.103 488.427 201.963 488.063 201.683 487.81C201.41 487.55 200.983 487.423 200.403 487.43C199.977 487.437 199.57 487.537 199.183 487.73C198.803 487.923 198.543 488.26 198.403 488.74H195.973C196.013 487.993 196.23 487.38 196.623 486.9C197.017 486.413 197.55 486.053 198.223 485.82C198.903 485.58 199.673 485.46 200.533 485.46C201.593 485.46 202.443 485.593 203.083 485.86C203.723 486.12 204.187 486.497 204.473 486.99C204.76 487.477 204.903 488.057 204.903 488.73V496H202.463L202.223 494.22C201.87 494.967 201.427 495.483 200.893 495.77C200.367 496.057 199.743 496.2 199.023 496.2ZM200.003 494.28C200.27 494.28 200.527 494.233 200.773 494.14C201.027 494.04 201.25 493.91 201.443 493.75C201.643 493.583 201.803 493.397 201.923 493.19C202.043 492.983 202.103 492.77 202.103 492.55V491.02L201.053 491.04C200.567 491.047 200.113 491.107 199.693 491.22C199.273 491.327 198.933 491.503 198.673 491.75C198.42 491.997 198.293 492.33 198.293 492.75C198.293 493.23 198.46 493.607 198.793 493.88C199.127 494.147 199.53 494.28 200.003 494.28ZM208.727 499.3C208.021 499.3 207.521 499.24 207.227 499.12C206.941 499.007 206.797 498.95 206.797 498.95V497.09L207.817 497.13C208.264 497.157 208.624 497.133 208.897 497.06C209.171 496.993 209.377 496.903 209.517 496.79C209.664 496.677 209.767 496.557 209.827 496.43C209.887 496.31 209.931 496.213 209.957 496.14L210.147 495.57L206.127 485.66H209.017L211.497 492.4L214.007 485.66H216.857L212.667 496.06C212.307 496.94 211.927 497.613 211.527 498.08C211.127 498.547 210.694 498.867 210.227 499.04C209.767 499.213 209.267 499.3 208.727 499.3ZM216.437 496L221.617 481.54H224.697L229.867 496H226.957L225.777 492.65H220.577L219.367 496H216.437ZM221.227 490.1H225.077L223.167 484.36L221.227 490.1ZM232.038 496V481.54H237.358C238.411 481.54 239.355 481.723 240.188 482.09C241.021 482.45 241.678 482.983 242.158 483.69C242.645 484.397 242.888 485.26 242.888 486.28C242.888 487.24 242.675 488.06 242.248 488.74C241.821 489.42 241.221 489.94 240.448 490.3C239.681 490.66 238.778 490.84 237.738 490.84H234.978V496H232.038ZM234.948 488.58H237.658C238.391 488.58 238.991 488.347 239.458 487.88C239.925 487.407 240.158 486.823 240.158 486.13C240.158 485.41 239.911 484.84 239.418 484.42C238.925 483.993 238.325 483.78 237.618 483.78H234.948V488.58ZM245.085 481.54H247.995V496H245.085V481.54Z" fill="#BA4270"/>
<path id="Just Now" opacity="0.5" d="M477.237 492.59C477.237 493.357 477.151 494.01 476.977 494.55C476.804 495.09 476.494 495.5 476.047 495.78C475.607 496.06 474.981 496.2 474.167 496.2C473.654 496.2 473.171 496.14 472.717 496.02C472.271 495.9 471.974 495.81 471.827 495.75L471.957 493.98C472.164 494.053 472.401 494.147 472.667 494.26C472.941 494.367 473.277 494.42 473.677 494.42C474.331 494.42 474.777 494.24 475.017 493.88C475.264 493.52 475.387 492.913 475.387 492.06V481.54H477.237V492.59ZM484.101 496.2C483.561 496.193 483.051 496.117 482.571 495.97C482.097 495.817 481.677 495.593 481.311 495.3C480.944 495.007 480.654 494.643 480.441 494.21C480.234 493.77 480.131 493.26 480.131 492.68V485.66H481.981V492.49C481.981 493.163 482.187 493.71 482.601 494.13C483.021 494.55 483.651 494.76 484.491 494.76C485.251 494.76 485.861 494.563 486.321 494.17C486.787 493.77 487.021 493.177 487.021 492.39V485.66H488.861V496H487.391L487.201 494.02C487.074 494.54 486.857 494.96 486.551 495.28C486.251 495.6 485.887 495.837 485.461 495.99C485.041 496.137 484.587 496.207 484.101 496.2ZM495.416 496.2C494.696 496.2 494.026 496.09 493.406 495.87C492.793 495.643 492.283 495.293 491.876 494.82C491.469 494.34 491.213 493.73 491.106 492.99H492.786C492.879 493.397 493.046 493.737 493.286 494.01C493.533 494.277 493.839 494.48 494.206 494.62C494.573 494.753 494.973 494.82 495.406 494.82C496.099 494.82 496.659 494.69 497.086 494.43C497.513 494.17 497.726 493.77 497.726 493.23C497.726 492.85 497.613 492.547 497.386 492.32C497.166 492.087 496.823 491.917 496.356 491.81L494.216 491.28C493.383 491.08 492.716 490.767 492.216 490.34C491.716 489.913 491.466 489.317 491.466 488.55C491.459 487.943 491.603 487.41 491.896 486.95C492.189 486.49 492.629 486.127 493.216 485.86C493.803 485.593 494.533 485.46 495.406 485.46C496.526 485.46 497.429 485.713 498.116 486.22C498.809 486.72 499.169 487.457 499.196 488.43H497.566C497.499 487.937 497.276 487.547 496.896 487.26C496.523 486.967 496.019 486.82 495.386 486.82C494.726 486.82 494.189 486.953 493.776 487.22C493.363 487.48 493.156 487.887 493.156 488.44C493.156 488.807 493.303 489.097 493.596 489.31C493.889 489.517 494.323 489.69 494.896 489.83L496.966 490.35C497.446 490.477 497.839 490.643 498.146 490.85C498.459 491.057 498.706 491.287 498.886 491.54C499.073 491.793 499.203 492.06 499.276 492.34C499.356 492.613 499.396 492.877 499.396 493.13C499.396 493.763 499.236 494.31 498.916 494.77C498.603 495.223 498.149 495.577 497.556 495.83C496.969 496.077 496.256 496.2 495.416 496.2ZM506.999 487.01H504.669V493.44C504.669 493.807 504.706 494.077 504.779 494.25C504.859 494.417 504.989 494.523 505.169 494.57C505.356 494.617 505.609 494.64 505.929 494.64H507.059V495.88C506.933 495.927 506.739 495.967 506.479 496C506.226 496.033 505.909 496.05 505.529 496.05C504.816 496.05 504.263 495.953 503.869 495.76C503.476 495.567 503.199 495.28 503.039 494.9C502.886 494.52 502.809 494.053 502.809 493.5V487.01H501.129V485.66H502.859L503.309 482.65H504.669V485.65H506.999V487.01ZM524.056 481.54H525.906V496H524.256L516.496 484.6V496H514.646V481.54H516.416L524.056 492.78V481.54ZM533.317 496.2C532.364 496.2 531.53 495.997 530.817 495.59C530.104 495.177 529.55 494.573 529.157 493.78C528.764 492.987 528.567 492.017 528.567 490.87C528.567 489.79 528.75 488.843 529.117 488.03C529.484 487.217 530.02 486.587 530.727 486.14C531.44 485.687 532.304 485.46 533.317 485.46C534.27 485.46 535.097 485.67 535.797 486.09C536.504 486.503 537.05 487.113 537.437 487.92C537.824 488.727 538.017 489.71 538.017 490.87C538.017 491.923 537.837 492.85 537.477 493.65C537.124 494.45 536.597 495.077 535.897 495.53C535.204 495.977 534.344 496.2 533.317 496.2ZM533.317 494.74C533.937 494.74 534.46 494.583 534.887 494.27C535.314 493.957 535.637 493.507 535.857 492.92C536.077 492.333 536.187 491.637 536.187 490.83C536.187 490.09 536.09 489.427 535.897 488.84C535.704 488.247 535.394 487.777 534.967 487.43C534.547 487.083 533.997 486.91 533.317 486.91C532.69 486.91 532.16 487.067 531.727 487.38C531.294 487.687 530.964 488.133 530.737 488.72C530.517 489.307 530.407 490.01 530.407 490.83C530.407 491.557 530.507 492.217 530.707 492.81C530.907 493.403 531.22 493.873 531.647 494.22C532.074 494.567 532.63 494.74 533.317 494.74ZM553.666 485.66L550.536 496H548.716L546.356 488.37L544.116 496H542.306L539.116 485.66H540.826L543.196 493.61H543.356L545.686 485.66H547.086L549.506 493.59H549.666L551.936 485.66H553.666Z" fill="#36536B"/>
</g>
<path id="The payment has been" d="M182.46 515.24V513.54H193.4V515.24H188.99V528H187.13V515.24H182.46ZM195.405 528V513.14H197.205V519.18C197.378 518.893 197.612 518.627 197.905 518.38C198.198 518.127 198.555 517.923 198.975 517.77C199.395 517.61 199.882 517.53 200.435 517.53C201.108 517.53 201.718 517.657 202.265 517.91C202.812 518.157 203.245 518.51 203.565 518.97C203.885 519.43 204.045 519.977 204.045 520.61V528H202.195V520.98C202.195 520.36 201.982 519.883 201.555 519.55C201.135 519.21 200.585 519.04 199.905 519.04C199.445 519.04 199.012 519.117 198.605 519.27C198.198 519.417 197.868 519.643 197.615 519.95C197.368 520.25 197.245 520.633 197.245 521.1V528H195.405ZM208.248 523.26C208.248 523.913 208.355 524.507 208.568 525.04C208.788 525.567 209.118 525.987 209.558 526.3C210.005 526.613 210.562 526.77 211.228 526.77C211.888 526.77 212.455 526.617 212.928 526.31C213.408 526.003 213.715 525.56 213.848 524.98H215.598C215.472 525.68 215.192 526.27 214.758 526.75C214.325 527.23 213.802 527.593 213.188 527.84C212.575 528.08 211.935 528.2 211.268 528.2C210.302 528.2 209.452 527.99 208.718 527.57C207.985 527.15 207.412 526.547 206.998 525.76C206.585 524.973 206.378 524.03 206.378 522.93C206.378 521.843 206.565 520.89 206.938 520.07C207.312 519.25 207.852 518.61 208.558 518.15C209.272 517.69 210.128 517.46 211.128 517.46C212.102 517.46 212.925 517.67 213.598 518.09C214.272 518.51 214.782 519.103 215.128 519.87C215.482 520.63 215.658 521.533 215.658 522.58V523.26H208.248ZM208.258 522.01H213.878C213.878 521.417 213.778 520.883 213.578 520.41C213.378 519.93 213.072 519.553 212.658 519.28C212.252 519 211.738 518.86 211.118 518.86C210.472 518.86 209.935 519.017 209.508 519.33C209.088 519.637 208.772 520.033 208.558 520.52C208.352 521 208.252 521.497 208.258 522.01ZM222.69 531.22V517.66H224.53L224.55 519.46C224.67 519.247 224.823 519.023 225.01 518.79C225.203 518.557 225.437 518.34 225.71 518.14C225.99 517.94 226.313 517.777 226.68 517.65C227.053 517.523 227.477 517.46 227.95 517.46C228.777 517.46 229.503 517.65 230.13 518.03C230.763 518.403 231.257 518.977 231.61 519.75C231.963 520.523 232.14 521.503 232.14 522.69C232.14 523.877 231.967 524.88 231.62 525.7C231.28 526.513 230.787 527.133 230.14 527.56C229.493 527.987 228.713 528.2 227.8 528.2C227.34 528.2 226.93 528.133 226.57 528C226.217 527.873 225.907 527.707 225.64 527.5C225.38 527.287 225.16 527.06 224.98 526.82C224.807 526.58 224.663 526.35 224.55 526.13V531.22H222.69ZM227.45 526.76C228.303 526.76 229 526.437 229.54 525.79C230.08 525.137 230.35 524.123 230.35 522.75C230.35 521.57 230.103 520.633 229.61 519.94C229.117 519.247 228.397 518.9 227.45 518.9C226.49 518.9 225.763 519.257 225.27 519.97C224.777 520.677 224.53 521.603 224.53 522.75C224.53 523.49 224.64 524.163 224.86 524.77C225.08 525.377 225.407 525.86 225.84 526.22C226.273 526.58 226.81 526.76 227.45 526.76ZM237.308 528.2C236.641 528.2 236.051 528.083 235.538 527.85C235.025 527.61 234.621 527.267 234.328 526.82C234.041 526.373 233.898 525.833 233.898 525.2C233.898 524.053 234.298 523.2 235.098 522.64C235.898 522.08 237.181 521.78 238.948 521.74L240.798 521.69V520.88C240.798 520.247 240.608 519.747 240.228 519.38C239.848 519.007 239.258 518.82 238.458 518.82C237.865 518.827 237.341 518.967 236.888 519.24C236.441 519.513 236.151 519.96 236.018 520.58H234.388C234.428 519.907 234.618 519.34 234.958 518.88C235.298 518.413 235.771 518.06 236.378 517.82C236.991 517.58 237.715 517.46 238.548 517.46C239.448 517.46 240.195 517.587 240.788 517.84C241.388 518.093 241.835 518.467 242.128 518.96C242.428 519.453 242.578 520.06 242.578 520.78V528H240.998L240.868 526.06C240.468 526.867 239.958 527.427 239.338 527.74C238.725 528.047 238.048 528.2 237.308 528.2ZM237.868 526.87C238.215 526.87 238.558 526.807 238.898 526.68C239.245 526.553 239.561 526.383 239.848 526.17C240.135 525.95 240.361 525.707 240.528 525.44C240.701 525.167 240.791 524.887 240.798 524.6V522.83L239.258 522.86C238.471 522.873 237.811 522.953 237.278 523.1C236.751 523.247 236.355 523.477 236.088 523.79C235.828 524.103 235.698 524.513 235.698 525.02C235.698 525.6 235.898 526.053 236.298 526.38C236.705 526.707 237.228 526.87 237.868 526.87ZM246.425 531.3C245.818 531.3 245.402 531.257 245.175 531.17C244.948 531.083 244.835 531.04 244.835 531.04V529.84L245.885 529.86C246.272 529.873 246.592 529.847 246.845 529.78C247.098 529.713 247.302 529.623 247.455 529.51C247.608 529.397 247.725 529.27 247.805 529.13C247.892 528.99 247.962 528.857 248.015 528.73L248.375 527.75L244.335 517.66H246.205L249.255 525.64L252.285 517.66H254.095L249.735 528.78C249.468 529.433 249.168 529.943 248.835 530.31C248.508 530.677 248.142 530.933 247.735 531.08C247.335 531.227 246.898 531.3 246.425 531.3ZM256.069 528V517.66H257.849V519.16C258.136 518.707 258.529 518.31 259.029 517.97C259.529 517.63 260.179 517.46 260.979 517.46C261.352 517.46 261.732 517.523 262.119 517.65C262.512 517.777 262.872 517.967 263.199 518.22C263.526 518.473 263.779 518.783 263.959 519.15C264.279 518.643 264.712 518.237 265.259 517.93C265.806 517.617 266.422 517.46 267.109 517.46C267.469 517.46 267.846 517.517 268.239 517.63C268.632 517.737 268.996 517.93 269.329 518.21C269.669 518.483 269.946 518.867 270.159 519.36C270.372 519.847 270.479 520.473 270.479 521.24V528H268.619V521.42C268.619 520.793 268.519 520.31 268.319 519.97C268.119 519.623 267.856 519.38 267.529 519.24C267.209 519.1 266.866 519.03 266.499 519.03C266.179 519.03 265.839 519.093 265.479 519.22C265.119 519.347 264.812 519.56 264.559 519.86C264.306 520.16 264.179 520.57 264.179 521.09V528H262.339V520.88C262.339 520.473 262.229 520.133 262.009 519.86C261.796 519.587 261.526 519.38 261.199 519.24C260.879 519.1 260.559 519.03 260.239 519.03C259.886 519.03 259.529 519.1 259.169 519.24C258.816 519.38 258.516 519.603 258.269 519.91C258.029 520.21 257.909 520.603 257.909 521.09V528H256.069ZM274.694 523.26C274.694 523.913 274.8 524.507 275.014 525.04C275.234 525.567 275.564 525.987 276.004 526.3C276.45 526.613 277.007 526.77 277.674 526.77C278.334 526.77 278.9 526.617 279.374 526.31C279.854 526.003 280.16 525.56 280.294 524.98H282.044C281.917 525.68 281.637 526.27 281.204 526.75C280.77 527.23 280.247 527.593 279.634 527.84C279.02 528.08 278.38 528.2 277.714 528.2C276.747 528.2 275.897 527.99 275.164 527.57C274.43 527.15 273.857 526.547 273.444 525.76C273.03 524.973 272.824 524.03 272.824 522.93C272.824 521.843 273.01 520.89 273.384 520.07C273.757 519.25 274.297 518.61 275.004 518.15C275.717 517.69 276.574 517.46 277.574 517.46C278.547 517.46 279.37 517.67 280.044 518.09C280.717 518.51 281.227 519.103 281.574 519.87C281.927 520.63 282.104 521.533 282.104 522.58V523.26H274.694ZM274.704 522.01H280.324C280.324 521.417 280.224 520.883 280.024 520.41C279.824 519.93 279.517 519.553 279.104 519.28C278.697 519 278.184 518.86 277.564 518.86C276.917 518.86 276.38 519.017 275.954 519.33C275.534 519.637 275.217 520.033 275.004 520.52C274.797 521 274.697 521.497 274.704 522.01ZM284.643 528V517.66H286.433V519.16C286.6 518.873 286.83 518.603 287.123 518.35C287.423 518.097 287.783 517.893 288.203 517.74C288.63 517.587 289.12 517.51 289.673 517.51C290.327 517.51 290.927 517.64 291.473 517.9C292.027 518.16 292.467 518.567 292.793 519.12C293.127 519.667 293.293 520.373 293.293 521.24V528H291.443V521.42C291.443 520.613 291.23 520.017 290.803 519.63C290.383 519.237 289.837 519.04 289.163 519.04C288.697 519.04 288.26 519.117 287.853 519.27C287.447 519.417 287.117 519.643 286.863 519.95C286.61 520.25 286.483 520.63 286.483 521.09V528H284.643ZM300.951 519.01H298.621V525.44C298.621 525.807 298.658 526.077 298.731 526.25C298.811 526.417 298.941 526.523 299.121 526.57C299.308 526.617 299.561 526.64 299.881 526.64H301.011V527.88C300.885 527.927 300.691 527.967 300.431 528C300.178 528.033 299.861 528.05 299.481 528.05C298.768 528.05 298.215 527.953 297.821 527.76C297.428 527.567 297.151 527.28 296.991 526.9C296.838 526.52 296.761 526.053 296.761 525.5V519.01H295.081V517.66H296.811L297.261 514.65H298.621V517.65H300.951V519.01ZM308.218 528V513.14H310.018V519.18C310.191 518.893 310.424 518.627 310.718 518.38C311.011 518.127 311.368 517.923 311.788 517.77C312.208 517.61 312.694 517.53 313.248 517.53C313.921 517.53 314.531 517.657 315.078 517.91C315.624 518.157 316.058 518.51 316.378 518.97C316.698 519.43 316.858 519.977 316.858 520.61V528H315.008V520.98C315.008 520.36 314.794 519.883 314.368 519.55C313.948 519.21 313.398 519.04 312.718 519.04C312.258 519.04 311.824 519.117 311.418 519.27C311.011 519.417 310.681 519.643 310.428 519.95C310.181 520.25 310.058 520.633 310.058 521.1V528H308.218ZM322.562 528.2C321.895 528.2 321.305 528.083 320.792 527.85C320.279 527.61 319.875 527.267 319.582 526.82C319.295 526.373 319.152 525.833 319.152 525.2C319.152 524.053 319.552 523.2 320.352 522.64C321.152 522.08 322.435 521.78 324.202 521.74L326.052 521.69V520.88C326.052 520.247 325.862 519.747 325.482 519.38C325.102 519.007 324.512 518.82 323.712 518.82C323.119 518.827 322.595 518.967 322.142 519.24C321.695 519.513 321.405 519.96 321.272 520.58H319.642C319.682 519.907 319.872 519.34 320.212 518.88C320.552 518.413 321.025 518.06 321.632 517.82C322.245 517.58 322.969 517.46 323.802 517.46C324.702 517.46 325.449 517.587 326.042 517.84C326.642 518.093 327.089 518.467 327.382 518.96C327.682 519.453 327.832 520.06 327.832 520.78V528H326.252L326.122 526.06C325.722 526.867 325.212 527.427 324.592 527.74C323.979 528.047 323.302 528.2 322.562 528.2ZM323.122 526.87C323.469 526.87 323.812 526.807 324.152 526.68C324.499 526.553 324.815 526.383 325.102 526.17C325.389 525.95 325.615 525.707 325.782 525.44C325.955 525.167 326.045 524.887 326.052 524.6V522.83L324.512 522.86C323.725 522.873 323.065 522.953 322.532 523.1C322.005 523.247 321.609 523.477 321.342 523.79C321.082 524.103 320.952 524.513 320.952 525.02C320.952 525.6 321.152 526.053 321.552 526.38C321.959 526.707 322.482 526.87 323.122 526.87ZM334.505 528.2C333.785 528.2 333.115 528.09 332.495 527.87C331.881 527.643 331.371 527.293 330.965 526.82C330.558 526.34 330.301 525.73 330.195 524.99H331.875C331.968 525.397 332.135 525.737 332.375 526.01C332.621 526.277 332.928 526.48 333.295 526.62C333.661 526.753 334.061 526.82 334.495 526.82C335.188 526.82 335.748 526.69 336.175 526.43C336.601 526.17 336.815 525.77 336.815 525.23C336.815 524.85 336.701 524.547 336.475 524.32C336.255 524.087 335.911 523.917 335.445 523.81L333.305 523.28C332.471 523.08 331.805 522.767 331.305 522.34C330.805 521.913 330.555 521.317 330.555 520.55C330.548 519.943 330.691 519.41 330.985 518.95C331.278 518.49 331.718 518.127 332.305 517.86C332.891 517.593 333.621 517.46 334.495 517.46C335.615 517.46 336.518 517.713 337.205 518.22C337.898 518.72 338.258 519.457 338.285 520.43H336.655C336.588 519.937 336.365 519.547 335.985 519.26C335.611 518.967 335.108 518.82 334.475 518.82C333.815 518.82 333.278 518.953 332.865 519.22C332.451 519.48 332.245 519.887 332.245 520.44C332.245 520.807 332.391 521.097 332.685 521.31C332.978 521.517 333.411 521.69 333.985 521.83L336.055 522.35C336.535 522.477 336.928 522.643 337.235 522.85C337.548 523.057 337.795 523.287 337.975 523.54C338.161 523.793 338.291 524.06 338.365 524.34C338.445 524.613 338.485 524.877 338.485 525.13C338.485 525.763 338.325 526.31 338.005 526.77C337.691 527.223 337.238 527.577 336.645 527.83C336.058 528.077 335.345 528.2 334.505 528.2ZM350.71 528.2C350.104 528.2 349.59 528.12 349.17 527.96C348.757 527.8 348.417 527.597 348.15 527.35C347.884 527.097 347.677 526.84 347.53 526.58C347.384 526.313 347.277 526.08 347.21 525.88L347.01 528H345.6V513.14H347.46V519.3C347.547 519.127 347.677 518.937 347.85 518.73C348.03 518.523 348.26 518.323 348.54 518.13C348.82 517.937 349.15 517.777 349.53 517.65C349.917 517.523 350.357 517.46 350.85 517.46C352.144 517.46 353.17 517.91 353.93 518.81C354.697 519.71 355.08 521.037 355.08 522.79C355.08 523.877 354.917 524.827 354.59 525.64C354.264 526.447 353.777 527.077 353.13 527.53C352.484 527.977 351.677 528.2 350.71 528.2ZM350.38 526.78C351.22 526.78 351.904 526.457 352.43 525.81C352.957 525.157 353.22 524.12 353.22 522.7C353.22 521.493 352.974 520.56 352.48 519.9C351.994 519.233 351.28 518.9 350.34 518.9C349.654 518.9 349.1 519.05 348.68 519.35C348.267 519.643 347.96 520.073 347.76 520.64C347.567 521.207 347.467 521.893 347.46 522.7C347.46 524.147 347.684 525.19 348.13 525.83C348.584 526.463 349.334 526.78 350.38 526.78ZM358.815 523.26C358.815 523.913 358.922 524.507 359.135 525.04C359.355 525.567 359.685 525.987 360.125 526.3C360.572 526.613 361.128 526.77 361.795 526.77C362.455 526.77 363.022 526.617 363.495 526.31C363.975 526.003 364.282 525.56 364.415 524.98H366.165C366.038 525.68 365.758 526.27 365.325 526.75C364.892 527.23 364.368 527.593 363.755 527.84C363.142 528.08 362.502 528.2 361.835 528.2C360.868 528.2 360.018 527.99 359.285 527.57C358.552 527.15 357.978 526.547 357.565 525.76C357.152 524.973 356.945 524.03 356.945 522.93C356.945 521.843 357.132 520.89 357.505 520.07C357.878 519.25 358.418 518.61 359.125 518.15C359.838 517.69 360.695 517.46 361.695 517.46C362.668 517.46 363.492 517.67 364.165 518.09C364.838 518.51 365.348 519.103 365.695 519.87C366.048 520.63 366.225 521.533 366.225 522.58V523.26H358.815ZM358.825 522.01H364.445C364.445 521.417 364.345 520.883 364.145 520.41C363.945 519.93 363.638 519.553 363.225 519.28C362.818 519 362.305 518.86 361.685 518.86C361.038 518.86 360.502 519.017 360.075 519.33C359.655 519.637 359.338 520.033 359.125 520.52C358.918 521 358.818 521.497 358.825 522.01ZM370.084 523.26C370.084 523.913 370.191 524.507 370.404 525.04C370.624 525.567 370.954 525.987 371.394 526.3C371.841 526.613 372.398 526.77 373.064 526.77C373.724 526.77 374.291 526.617 374.764 526.31C375.244 526.003 375.551 525.56 375.684 524.98H377.434C377.308 525.68 377.028 526.27 376.594 526.75C376.161 527.23 375.638 527.593 375.024 527.84C374.411 528.08 373.771 528.2 373.104 528.2C372.138 528.2 371.288 527.99 370.554 527.57C369.821 527.15 369.248 526.547 368.834 525.76C368.421 524.973 368.214 524.03 368.214 522.93C368.214 521.843 368.401 520.89 368.774 520.07C369.148 519.25 369.688 518.61 370.394 518.15C371.108 517.69 371.964 517.46 372.964 517.46C373.938 517.46 374.761 517.67 375.434 518.09C376.108 518.51 376.618 519.103 376.964 519.87C377.318 520.63 377.494 521.533 377.494 522.58V523.26H370.084ZM370.094 522.01H375.714C375.714 521.417 375.614 520.883 375.414 520.41C375.214 519.93 374.908 519.553 374.494 519.28C374.088 519 373.574 518.86 372.954 518.86C372.308 518.86 371.771 519.017 371.344 519.33C370.924 519.637 370.608 520.033 370.394 520.52C370.188 521 370.088 521.497 370.094 522.01ZM380.034 528V517.66H381.824V519.16C381.991 518.873 382.221 518.603 382.514 518.35C382.814 518.097 383.174 517.893 383.594 517.74C384.021 517.587 384.511 517.51 385.064 517.51C385.717 517.51 386.317 517.64 386.864 517.9C387.417 518.16 387.857 518.567 388.184 519.12C388.517 519.667 388.684 520.373 388.684 521.24V528H386.834V521.42C386.834 520.613 386.621 520.017 386.194 519.63C385.774 519.237 385.227 519.04 384.554 519.04C384.087 519.04 383.651 519.117 383.244 519.27C382.837 519.417 382.507 519.643 382.254 519.95C382.001 520.25 381.874 520.63 381.874 521.09V528H380.034ZM396.186 531.22V517.66H398.026L398.046 519.46C398.166 519.247 398.32 519.023 398.506 518.79C398.7 518.557 398.933 518.34 399.206 518.14C399.486 517.94 399.81 517.777 400.176 517.65C400.55 517.523 400.973 517.46 401.446 517.46C402.273 517.46 403 517.65 403.626 518.03C404.26 518.403 404.753 518.977 405.106 519.75C405.46 520.523 405.636 521.503 405.636 522.69C405.636 523.877 405.463 524.88 405.116 525.7C404.776 526.513 404.283 527.133 403.636 527.56C402.99 527.987 402.21 528.2 401.296 528.2C400.836 528.2 400.426 528.133 400.066 528C399.713 527.873 399.403 527.707 399.136 527.5C398.876 527.287 398.656 527.06 398.476 526.82C398.303 526.58 398.16 526.35 398.046 526.13V531.22H396.186ZM400.946 526.76C401.8 526.76 402.496 526.437 403.036 525.79C403.576 525.137 403.846 524.123 403.846 522.75C403.846 521.57 403.6 520.633 403.106 519.94C402.613 519.247 401.893 518.9 400.946 518.9C399.986 518.9 399.26 519.257 398.766 519.97C398.273 520.677 398.026 521.603 398.026 522.75C398.026 523.49 398.136 524.163 398.356 524.77C398.576 525.377 398.903 525.86 399.336 526.22C399.77 526.58 400.306 526.76 400.946 526.76ZM408.061 528V517.66H409.821V519.65C409.995 519.157 410.238 518.75 410.551 518.43C410.865 518.103 411.221 517.86 411.621 517.7C412.028 517.54 412.448 517.46 412.881 517.46C413.035 517.46 413.185 517.47 413.331 517.49C413.478 517.51 413.591 517.543 413.671 517.59V519.38C413.571 519.333 413.441 519.303 413.281 519.29C413.128 519.27 412.998 519.26 412.891 519.26C412.478 519.233 412.091 519.26 411.731 519.34C411.371 519.413 411.055 519.543 410.781 519.73C410.508 519.917 410.291 520.163 410.131 520.47C409.978 520.77 409.901 521.137 409.901 521.57V528H408.061ZM419.71 528.2C418.757 528.2 417.924 527.997 417.21 527.59C416.497 527.177 415.944 526.573 415.55 525.78C415.157 524.987 414.96 524.017 414.96 522.87C414.96 521.79 415.144 520.843 415.51 520.03C415.877 519.217 416.414 518.587 417.12 518.14C417.834 517.687 418.697 517.46 419.71 517.46C420.664 517.46 421.49 517.67 422.19 518.09C422.897 518.503 423.444 519.113 423.83 519.92C424.217 520.727 424.41 521.71 424.41 522.87C424.41 523.923 424.23 524.85 423.87 525.65C423.517 526.45 422.99 527.077 422.29 527.53C421.597 527.977 420.737 528.2 419.71 528.2ZM419.71 526.74C420.33 526.74 420.854 526.583 421.28 526.27C421.707 525.957 422.03 525.507 422.25 524.92C422.47 524.333 422.58 523.637 422.58 522.83C422.58 522.09 422.484 521.427 422.29 520.84C422.097 520.247 421.787 519.777 421.36 519.43C420.94 519.083 420.39 518.91 419.71 518.91C419.084 518.91 418.554 519.067 418.12 519.38C417.687 519.687 417.357 520.133 417.13 520.72C416.91 521.307 416.8 522.01 416.8 522.83C416.8 523.557 416.9 524.217 417.1 524.81C417.3 525.403 417.614 525.873 418.04 526.22C418.467 526.567 419.024 526.74 419.71 526.74ZM430.951 517.46C431.691 517.46 432.357 517.603 432.951 517.89C433.544 518.17 434.027 518.57 434.401 519.09C434.781 519.61 435.017 520.223 435.111 520.93H433.471C433.411 520.57 433.271 520.24 433.051 519.94C432.837 519.64 432.554 519.4 432.201 519.22C431.847 519.04 431.434 518.95 430.961 518.95C430.074 518.95 429.354 519.27 428.801 519.91C428.247 520.55 427.971 521.53 427.971 522.85C427.971 524.043 428.224 525 428.731 525.72C429.244 526.433 429.997 526.79 430.991 526.79C431.464 526.79 431.874 526.7 432.221 526.52C432.574 526.333 432.857 526.09 433.071 525.79C433.284 525.483 433.421 525.157 433.481 524.81H435.091C435.004 525.503 434.771 526.103 434.391 526.61C434.011 527.117 433.524 527.51 432.931 527.79C432.344 528.063 431.684 528.2 430.951 528.2C430.024 528.2 429.201 527.997 428.481 527.59C427.767 527.183 427.207 526.583 426.801 525.79C426.394 524.997 426.191 524.023 426.191 522.87C426.191 521.79 426.374 520.847 426.741 520.04C427.114 519.227 427.654 518.593 428.361 518.14C429.074 517.687 429.937 517.46 430.951 517.46ZM438.932 523.26C438.932 523.913 439.039 524.507 439.252 525.04C439.472 525.567 439.802 525.987 440.242 526.3C440.689 526.613 441.245 526.77 441.912 526.77C442.572 526.77 443.139 526.617 443.612 526.31C444.092 526.003 444.399 525.56 444.532 524.98H446.282C446.155 525.68 445.875 526.27 445.442 526.75C445.009 527.23 444.485 527.593 443.872 527.84C443.259 528.08 442.619 528.2 441.952 528.2C440.985 528.2 440.135 527.99 439.402 527.57C438.669 527.15 438.095 526.547 437.682 525.76C437.269 524.973 437.062 524.03 437.062 522.93C437.062 521.843 437.249 520.89 437.622 520.07C437.995 519.25 438.535 518.61 439.242 518.15C439.955 517.69 440.812 517.46 441.812 517.46C442.785 517.46 443.609 517.67 444.282 518.09C444.955 518.51 445.465 519.103 445.812 519.87C446.165 520.63 446.342 521.533 446.342 522.58V523.26H438.932ZM438.942 522.01H444.562C444.562 521.417 444.462 520.883 444.262 520.41C444.062 519.93 443.755 519.553 443.342 519.28C442.935 519 442.422 518.86 441.802 518.86C441.155 518.86 440.619 519.017 440.192 519.33C439.772 519.637 439.455 520.033 439.242 520.52C439.035 521 438.935 521.497 438.942 522.01ZM452.493 528.2C451.773 528.2 451.103 528.09 450.483 527.87C449.87 527.643 449.36 527.293 448.953 526.82C448.546 526.34 448.29 525.73 448.183 524.99H449.863C449.956 525.397 450.123 525.737 450.363 526.01C450.61 526.277 450.916 526.48 451.283 526.62C451.65 526.753 452.05 526.82 452.483 526.82C453.176 526.82 453.736 526.69 454.163 526.43C454.59 526.17 454.803 525.77 454.803 525.23C454.803 524.85 454.69 524.547 454.463 524.32C454.243 524.087 453.9 523.917 453.433 523.81L451.293 523.28C450.46 523.08 449.793 522.767 449.293 522.34C448.793 521.913 448.543 521.317 448.543 520.55C448.536 519.943 448.68 519.41 448.973 518.95C449.266 518.49 449.706 518.127 450.293 517.86C450.88 517.593 451.61 517.46 452.483 517.46C453.603 517.46 454.506 517.713 455.193 518.22C455.886 518.72 456.246 519.457 456.273 520.43H454.643C454.576 519.937 454.353 519.547 453.973 519.26C453.6 518.967 453.096 518.82 452.463 518.82C451.803 518.82 451.266 518.953 450.853 519.22C450.44 519.48 450.233 519.887 450.233 520.44C450.233 520.807 450.38 521.097 450.673 521.31C450.966 521.517 451.4 521.69 451.973 521.83L454.043 522.35C454.523 522.477 454.916 522.643 455.223 522.85C455.536 523.057 455.783 523.287 455.963 523.54C456.15 523.793 456.28 524.06 456.353 524.34C456.433 524.613 456.473 524.877 456.473 525.13C456.473 525.763 456.313 526.31 455.993 526.77C455.68 527.223 455.226 527.577 454.633 527.83C454.046 528.077 453.333 528.2 452.493 528.2ZM462.571 528.2C461.851 528.2 461.181 528.09 460.561 527.87C459.948 527.643 459.438 527.293 459.031 526.82C458.624 526.34 458.368 525.73 458.261 524.99H459.941C460.034 525.397 460.201 525.737 460.441 526.01C460.688 526.277 460.994 526.48 461.361 526.62C461.728 526.753 462.128 526.82 462.561 526.82C463.254 526.82 463.814 526.69 464.241 526.43C464.668 526.17 464.881 525.77 464.881 525.23C464.881 524.85 464.768 524.547 464.541 524.32C464.321 524.087 463.978 523.917 463.511 523.81L461.371 523.28C460.538 523.08 459.871 522.767 459.371 522.34C458.871 521.913 458.621 521.317 458.621 520.55C458.614 519.943 458.758 519.41 459.051 518.95C459.344 518.49 459.784 518.127 460.371 517.86C460.958 517.593 461.688 517.46 462.561 517.46C463.681 517.46 464.584 517.713 465.271 518.22C465.964 518.72 466.324 519.457 466.351 520.43H464.721C464.654 519.937 464.431 519.547 464.051 519.26C463.678 518.967 463.174 518.82 462.541 518.82C461.881 518.82 461.344 518.953 460.931 519.22C460.518 519.48 460.311 519.887 460.311 520.44C460.311 520.807 460.458 521.097 460.751 521.31C461.044 521.517 461.478 521.69 462.051 521.83L464.121 522.35C464.601 522.477 464.994 522.643 465.301 522.85C465.614 523.057 465.861 523.287 466.041 523.54C466.228 523.793 466.358 524.06 466.431 524.34C466.511 524.613 466.551 524.877 466.551 525.13C466.551 525.763 466.391 526.31 466.071 526.77C465.758 527.223 465.304 527.577 464.711 527.83C464.124 528.077 463.411 528.2 462.571 528.2ZM470.455 523.26C470.455 523.913 470.562 524.507 470.775 525.04C470.995 525.567 471.325 525.987 471.765 526.3C472.212 526.613 472.769 526.77 473.435 526.77C474.095 526.77 474.662 526.617 475.135 526.31C475.615 526.003 475.922 525.56 476.055 524.98H477.805C477.679 525.68 477.399 526.27 476.965 526.75C476.532 527.23 476.009 527.593 475.395 527.84C474.782 528.08 474.142 528.2 473.475 528.2C472.509 528.2 471.659 527.99 470.925 527.57C470.192 527.15 469.619 526.547 469.205 525.76C468.792 524.973 468.585 524.03 468.585 522.93C468.585 521.843 468.772 520.89 469.145 520.07C469.519 519.25 470.059 518.61 470.765 518.15C471.479 517.69 472.335 517.46 473.335 517.46C474.309 517.46 475.132 517.67 475.805 518.09C476.479 518.51 476.989 519.103 477.335 519.87C477.689 520.63 477.865 521.533 477.865 522.58V523.26H470.455ZM470.465 522.01H476.085C476.085 521.417 475.985 520.883 475.785 520.41C475.585 519.93 475.279 519.553 474.865 519.28C474.459 519 473.945 518.86 473.325 518.86C472.679 518.86 472.142 519.017 471.715 519.33C471.295 519.637 470.979 520.033 470.765 520.52C470.559 521 470.459 521.497 470.465 522.01ZM484.135 528.2C482.795 528.2 481.732 527.74 480.945 526.82C480.158 525.9 479.765 524.557 479.765 522.79C479.765 521.717 479.922 520.78 480.235 519.98C480.555 519.18 481.028 518.56 481.655 518.12C482.282 517.68 483.062 517.46 483.995 517.46C484.488 517.46 484.925 517.523 485.305 517.65C485.692 517.777 486.025 517.937 486.305 518.13C486.585 518.323 486.812 518.523 486.985 518.73C487.165 518.937 487.298 519.127 487.385 519.3V513.14H489.245V528H487.835L487.635 525.88C487.568 526.08 487.462 526.313 487.315 526.58C487.168 526.84 486.962 527.097 486.695 527.35C486.428 527.597 486.085 527.8 485.665 527.96C485.252 528.12 484.742 528.2 484.135 528.2ZM484.465 526.78C485.512 526.78 486.258 526.463 486.705 525.83C487.158 525.19 487.385 524.147 487.385 522.7C487.378 521.893 487.275 521.207 487.075 520.64C486.882 520.073 486.575 519.643 486.155 519.35C485.742 519.05 485.192 518.9 484.505 518.9C483.652 518.9 482.958 519.203 482.425 519.81C481.892 520.417 481.625 521.38 481.625 522.7C481.625 523.993 481.865 524.997 482.345 525.71C482.832 526.423 483.538 526.78 484.465 526.78ZM491.87 528V525.64H494.07V528H491.87ZM500.233 515.24V513.54H511.173V515.24H506.763V528H504.903V515.24H500.233ZM513.178 528V513.14H514.978V519.18C515.152 518.893 515.385 518.627 515.678 518.38C515.972 518.127 516.328 517.923 516.748 517.77C517.168 517.61 517.655 517.53 518.208 517.53C518.882 517.53 519.492 517.657 520.038 517.91C520.585 518.157 521.018 518.51 521.338 518.97C521.658 519.43 521.818 519.977 521.818 520.61V528H519.968V520.98C519.968 520.36 519.755 519.883 519.328 519.55C518.908 519.21 518.358 519.04 517.678 519.04C517.218 519.04 516.785 519.117 516.378 519.27C515.972 519.417 515.642 519.643 515.388 519.95C515.142 520.25 515.018 520.633 515.018 521.1V528H513.178ZM526.022 523.26C526.022 523.913 526.129 524.507 526.342 525.04C526.562 525.567 526.892 525.987 527.332 526.3C527.779 526.613 528.335 526.77 529.002 526.77C529.662 526.77 530.229 526.617 530.702 526.31C531.182 526.003 531.489 525.56 531.622 524.98H533.372C533.245 525.68 532.965 526.27 532.532 526.75C532.099 527.23 531.575 527.593 530.962 527.84C530.349 528.08 529.709 528.2 529.042 528.2C528.075 528.2 527.225 527.99 526.492 527.57C525.759 527.15 525.185 526.547 524.772 525.76C524.359 524.973 524.152 524.03 524.152 522.93C524.152 521.843 524.339 520.89 524.712 520.07C525.085 519.25 525.625 518.61 526.332 518.15C527.045 517.69 527.902 517.46 528.902 517.46C529.875 517.46 530.699 517.67 531.372 518.09C532.045 518.51 532.555 519.103 532.902 519.87C533.255 520.63 533.432 521.533 533.432 522.58V523.26H526.022ZM526.032 522.01H531.652C531.652 521.417 531.552 520.883 531.352 520.41C531.152 519.93 530.845 519.553 530.432 519.28C530.025 519 529.512 518.86 528.892 518.86C528.245 518.86 527.709 519.017 527.282 519.33C526.862 519.637 526.545 520.033 526.332 520.52C526.125 521 526.025 521.497 526.032 522.01ZM188.92 547.01H186.59V553.44C186.59 553.807 186.627 554.077 186.7 554.25C186.78 554.417 186.91 554.523 187.09 554.57C187.277 554.617 187.53 554.64 187.85 554.64H188.98V555.88C188.853 555.927 188.66 555.967 188.4 556C188.147 556.033 187.83 556.05 187.45 556.05C186.737 556.05 186.183 555.953 185.79 555.76C185.397 555.567 185.12 555.28 184.96 554.9C184.807 554.52 184.73 554.053 184.73 553.5V547.01H183.05V545.66H184.78L185.23 542.65H186.59V545.65H188.92V547.01ZM195.413 556.2C194.46 556.2 193.627 555.997 192.913 555.59C192.2 555.177 191.647 554.573 191.253 553.78C190.86 552.987 190.663 552.017 190.663 550.87C190.663 549.79 190.847 548.843 191.213 548.03C191.58 547.217 192.117 546.587 192.823 546.14C193.537 545.687 194.4 545.46 195.413 545.46C196.367 545.46 197.193 545.67 197.893 546.09C198.6 546.503 199.147 547.113 199.533 547.92C199.92 548.727 200.113 549.71 200.113 550.87C200.113 551.923 199.933 552.85 199.573 553.65C199.22 554.45 198.693 555.077 197.993 555.53C197.3 555.977 196.44 556.2 195.413 556.2ZM195.413 554.74C196.033 554.74 196.557 554.583 196.983 554.27C197.41 553.957 197.733 553.507 197.953 552.92C198.173 552.333 198.283 551.637 198.283 550.83C198.283 550.09 198.187 549.427 197.993 548.84C197.8 548.247 197.49 547.777 197.063 547.43C196.643 547.083 196.093 546.91 195.413 546.91C194.787 546.91 194.257 547.067 193.823 547.38C193.39 547.687 193.06 548.133 192.833 548.72C192.613 549.307 192.503 550.01 192.503 550.83C192.503 551.557 192.603 552.217 192.803 552.81C193.003 553.403 193.317 553.873 193.743 554.22C194.17 554.567 194.727 554.74 195.413 554.74ZM207.455 547.01H205.125V553.44C205.125 553.807 205.162 554.077 205.235 554.25C205.315 554.417 205.445 554.523 205.625 554.57C205.812 554.617 206.065 554.64 206.385 554.64H207.515V555.88C207.388 555.927 207.195 555.967 206.935 556C206.682 556.033 206.365 556.05 205.985 556.05C205.272 556.05 204.718 555.953 204.325 555.76C203.932 555.567 203.655 555.28 203.495 554.9C203.342 554.52 203.265 554.053 203.265 553.5V547.01H201.585V545.66H203.315L203.765 542.65H205.125V545.65H207.455V547.01ZM212.913 556.2C212.247 556.2 211.657 556.083 211.143 555.85C210.63 555.61 210.227 555.267 209.933 554.82C209.647 554.373 209.503 553.833 209.503 553.2C209.503 552.053 209.903 551.2 210.703 550.64C211.503 550.08 212.787 549.78 214.553 549.74L216.403 549.69V548.88C216.403 548.247 216.213 547.747 215.833 547.38C215.453 547.007 214.863 546.82 214.063 546.82C213.47 546.827 212.947 546.967 212.493 547.24C212.047 547.513 211.757 547.96 211.623 548.58H209.993C210.033 547.907 210.223 547.34 210.563 546.88C210.903 546.413 211.377 546.06 211.983 545.82C212.597 545.58 213.32 545.46 214.153 545.46C215.053 545.46 215.8 545.587 216.393 545.84C216.993 546.093 217.44 546.467 217.733 546.96C218.033 547.453 218.183 548.06 218.183 548.78V556H216.603L216.473 554.06C216.073 554.867 215.563 555.427 214.943 555.74C214.33 556.047 213.653 556.2 212.913 556.2ZM213.473 554.87C213.82 554.87 214.163 554.807 214.503 554.68C214.85 554.553 215.167 554.383 215.453 554.17C215.74 553.95 215.967 553.707 216.133 553.44C216.307 553.167 216.397 552.887 216.403 552.6V550.83L214.863 550.86C214.077 550.873 213.417 550.953 212.883 551.1C212.357 551.247 211.96 551.477 211.693 551.79C211.433 552.103 211.303 552.513 211.303 553.02C211.303 553.6 211.503 554.053 211.903 554.38C212.31 554.707 212.833 554.87 213.473 554.87ZM223.953 556.13C223.393 556.13 222.939 556.053 222.593 555.9C222.253 555.747 221.989 555.54 221.803 555.28C221.623 555.02 221.499 554.723 221.433 554.39C221.373 554.05 221.343 553.7 221.343 553.34V541.14H223.163V553.16C223.163 553.68 223.263 554.07 223.463 554.33C223.669 554.59 223.956 554.733 224.323 554.76L224.883 554.77V555.97C224.729 556.017 224.569 556.053 224.403 556.08C224.236 556.113 224.086 556.13 223.953 556.13ZM234.769 556.2C234.102 556.2 233.512 556.083 232.999 555.85C232.486 555.61 232.082 555.267 231.789 554.82C231.502 554.373 231.359 553.833 231.359 553.2C231.359 552.053 231.759 551.2 232.559 550.64C233.359 550.08 234.642 549.78 236.409 549.74L238.259 549.69V548.88C238.259 548.247 238.069 547.747 237.689 547.38C237.309 547.007 236.719 546.82 235.919 546.82C235.326 546.827 234.802 546.967 234.349 547.24C233.902 547.513 233.612 547.96 233.479 548.58H231.849C231.889 547.907 232.079 547.34 232.419 546.88C232.759 546.413 233.232 546.06 233.839 545.82C234.452 545.58 235.176 545.46 236.009 545.46C236.909 545.46 237.656 545.587 238.249 545.84C238.849 546.093 239.296 546.467 239.589 546.96C239.889 547.453 240.039 548.06 240.039 548.78V556H238.459L238.329 554.06C237.929 554.867 237.419 555.427 236.799 555.74C236.186 556.047 235.509 556.2 234.769 556.2ZM235.329 554.87C235.676 554.87 236.019 554.807 236.359 554.68C236.706 554.553 237.022 554.383 237.309 554.17C237.596 553.95 237.822 553.707 237.989 553.44C238.162 553.167 238.252 552.887 238.259 552.6V550.83L236.719 550.86C235.932 550.873 235.272 550.953 234.739 551.1C234.212 551.247 233.816 551.477 233.549 551.79C233.289 552.103 233.159 552.513 233.159 553.02C233.159 553.6 233.359 554.053 233.759 554.38C234.166 554.707 234.689 554.87 235.329 554.87ZM243.198 556V545.66H244.978V547.16C245.265 546.707 245.658 546.31 246.158 545.97C246.658 545.63 247.308 545.46 248.108 545.46C248.481 545.46 248.861 545.523 249.248 545.65C249.641 545.777 250.001 545.967 250.328 546.22C250.655 546.473 250.908 546.783 251.088 547.15C251.408 546.643 251.841 546.237 252.388 545.93C252.935 545.617 253.551 545.46 254.238 545.46C254.598 545.46 254.975 545.517 255.368 545.63C255.761 545.737 256.125 545.93 256.458 546.21C256.798 546.483 257.075 546.867 257.288 547.36C257.501 547.847 257.608 548.473 257.608 549.24V556H255.748V549.42C255.748 548.793 255.648 548.31 255.448 547.97C255.248 547.623 254.985 547.38 254.658 547.24C254.338 547.1 253.995 547.03 253.628 547.03C253.308 547.03 252.968 547.093 252.608 547.22C252.248 547.347 251.941 547.56 251.688 547.86C251.435 548.16 251.308 548.57 251.308 549.09V556H249.468V548.88C249.468 548.473 249.358 548.133 249.138 547.86C248.925 547.587 248.655 547.38 248.328 547.24C248.008 547.1 247.688 547.03 247.368 547.03C247.015 547.03 246.658 547.1 246.298 547.24C245.945 547.38 245.645 547.603 245.398 547.91C245.158 548.21 245.038 548.603 245.038 549.09V556H243.198ZM264.613 556.2C263.659 556.2 262.826 555.997 262.113 555.59C261.399 555.177 260.846 554.573 260.453 553.78C260.059 552.987 259.863 552.017 259.863 550.87C259.863 549.79 260.046 548.843 260.413 548.03C260.779 547.217 261.316 546.587 262.023 546.14C262.736 545.687 263.599 545.46 264.613 545.46C265.566 545.46 266.393 545.67 267.093 546.09C267.799 546.503 268.346 547.113 268.733 547.92C269.119 548.727 269.313 549.71 269.313 550.87C269.313 551.923 269.133 552.85 268.773 553.65C268.419 554.45 267.893 555.077 267.193 555.53C266.499 555.977 265.639 556.2 264.613 556.2ZM264.613 554.74C265.233 554.74 265.756 554.583 266.183 554.27C266.609 553.957 266.933 553.507 267.153 552.92C267.373 552.333 267.483 551.637 267.483 550.83C267.483 550.09 267.386 549.427 267.193 548.84C266.999 548.247 266.689 547.777 266.263 547.43C265.843 547.083 265.293 546.91 264.613 546.91C263.986 546.91 263.456 547.067 263.023 547.38C262.589 547.687 262.259 548.133 262.033 548.72C261.813 549.307 261.703 550.01 261.703 550.83C261.703 551.557 261.803 552.217 262.003 552.81C262.203 553.403 262.516 553.873 262.943 554.22C263.369 554.567 263.926 554.74 264.613 554.74ZM275.377 556.2C274.837 556.193 274.327 556.117 273.847 555.97C273.374 555.817 272.954 555.593 272.587 555.3C272.22 555.007 271.93 554.643 271.717 554.21C271.51 553.77 271.407 553.26 271.407 552.68V545.66H273.257V552.49C273.257 553.163 273.464 553.71 273.877 554.13C274.297 554.55 274.927 554.76 275.767 554.76C276.527 554.76 277.137 554.563 277.597 554.17C278.064 553.77 278.297 553.177 278.297 552.39V545.66H280.137V556H278.667L278.477 554.02C278.35 554.54 278.134 554.96 277.827 555.28C277.527 555.6 277.164 555.837 276.737 555.99C276.317 556.137 275.864 556.207 275.377 556.2ZM283.139 556V545.66H284.929V547.16C285.096 546.873 285.326 546.603 285.619 546.35C285.919 546.097 286.279 545.893 286.699 545.74C287.126 545.587 287.616 545.51 288.169 545.51C288.823 545.51 289.423 545.64 289.969 545.9C290.523 546.16 290.963 546.567 291.289 547.12C291.623 547.667 291.789 548.373 291.789 549.24V556H289.939V549.42C289.939 548.613 289.726 548.017 289.299 547.63C288.879 547.237 288.333 547.04 287.659 547.04C287.193 547.04 286.756 547.117 286.349 547.27C285.943 547.417 285.613 547.643 285.359 547.95C285.106 548.25 284.979 548.63 284.979 549.09V556H283.139ZM299.447 547.01H297.117V553.44C297.117 553.807 297.154 554.077 297.227 554.25C297.307 554.417 297.437 554.523 297.617 554.57C297.804 554.617 298.057 554.64 298.377 554.64H299.507V555.88C299.381 555.927 299.187 555.967 298.927 556C298.674 556.033 298.357 556.05 297.977 556.05C297.264 556.05 296.711 555.953 296.317 555.76C295.924 555.567 295.647 555.28 295.487 554.9C295.334 554.52 295.257 554.053 295.257 553.5V547.01H293.577V545.66H295.307L295.757 542.65H297.117V545.65H299.447V547.01ZM310.19 556.2C308.85 556.2 307.786 555.74 307 554.82C306.213 553.9 305.82 552.557 305.82 550.79C305.82 549.717 305.976 548.78 306.29 547.98C306.61 547.18 307.083 546.56 307.71 546.12C308.336 545.68 309.116 545.46 310.05 545.46C310.543 545.46 310.98 545.523 311.36 545.65C311.746 545.777 312.08 545.937 312.36 546.13C312.64 546.323 312.866 546.523 313.04 546.73C313.22 546.937 313.353 547.127 313.44 547.3V541.14H315.3V556H313.89L313.69 553.88C313.623 554.08 313.516 554.313 313.37 554.58C313.223 554.84 313.016 555.097 312.75 555.35C312.483 555.597 312.14 555.8 311.72 555.96C311.306 556.12 310.796 556.2 310.19 556.2ZM310.52 554.78C311.566 554.78 312.313 554.463 312.76 553.83C313.213 553.19 313.44 552.147 313.44 550.7C313.433 549.893 313.33 549.207 313.13 548.64C312.936 548.073 312.63 547.643 312.21 547.35C311.796 547.05 311.246 546.9 310.56 546.9C309.706 546.9 309.013 547.203 308.48 547.81C307.946 548.417 307.68 549.38 307.68 550.7C307.68 551.993 307.92 552.997 308.4 553.71C308.886 554.423 309.593 554.78 310.52 554.78ZM319.674 551.26C319.674 551.913 319.781 552.507 319.994 553.04C320.214 553.567 320.544 553.987 320.984 554.3C321.431 554.613 321.988 554.77 322.654 554.77C323.314 554.77 323.881 554.617 324.354 554.31C324.834 554.003 325.141 553.56 325.274 552.98H327.024C326.898 553.68 326.618 554.27 326.184 554.75C325.751 555.23 325.228 555.593 324.614 555.84C324.001 556.08 323.361 556.2 322.694 556.2C321.728 556.2 320.878 555.99 320.144 555.57C319.411 555.15 318.838 554.547 318.424 553.76C318.011 552.973 317.804 552.03 317.804 550.93C317.804 549.843 317.991 548.89 318.364 548.07C318.738 547.25 319.278 546.61 319.984 546.15C320.698 545.69 321.554 545.46 322.554 545.46C323.528 545.46 324.351 545.67 325.024 546.09C325.698 546.51 326.208 547.103 326.554 547.87C326.908 548.63 327.084 549.533 327.084 550.58V551.26H319.674ZM319.684 550.01H325.304C325.304 549.417 325.204 548.883 325.004 548.41C324.804 547.93 324.498 547.553 324.084 547.28C323.678 547 323.164 546.86 322.544 546.86C321.898 546.86 321.361 547.017 320.934 547.33C320.514 547.637 320.198 548.033 319.984 548.52C319.778 549 319.678 549.497 319.684 550.01ZM333.354 556.2C332.014 556.2 330.95 555.74 330.164 554.82C329.377 553.9 328.984 552.557 328.984 550.79C328.984 549.717 329.14 548.78 329.454 547.98C329.774 547.18 330.247 546.56 330.874 546.12C331.5 545.68 332.28 545.46 333.214 545.46C333.707 545.46 334.144 545.523 334.524 545.65C334.91 545.777 335.244 545.937 335.524 546.13C335.804 546.323 336.03 546.523 336.204 546.73C336.384 546.937 336.517 547.127 336.604 547.3V541.14H338.464V556H337.054L336.854 553.88C336.787 554.08 336.68 554.313 336.534 554.58C336.387 554.84 336.18 555.097 335.914 555.35C335.647 555.597 335.304 555.8 334.884 555.96C334.47 556.12 333.96 556.2 333.354 556.2ZM333.684 554.78C334.73 554.78 335.477 554.463 335.924 553.83C336.377 553.19 336.604 552.147 336.604 550.7C336.597 549.893 336.494 549.207 336.294 548.64C336.1 548.073 335.794 547.643 335.374 547.35C334.96 547.05 334.41 546.9 333.724 546.9C332.87 546.9 332.177 547.203 331.644 547.81C331.11 548.417 330.844 549.38 330.844 550.7C330.844 551.993 331.084 552.997 331.564 553.71C332.05 554.423 332.757 554.78 333.684 554.78ZM345.318 556.2C344.778 556.193 344.268 556.117 343.788 555.97C343.315 555.817 342.895 555.593 342.528 555.3C342.162 555.007 341.872 554.643 341.658 554.21C341.452 553.77 341.348 553.26 341.348 552.68V545.66H343.198V552.49C343.198 553.163 343.405 553.71 343.818 554.13C344.238 554.55 344.868 554.76 345.708 554.76C346.468 554.76 347.078 554.563 347.538 554.17C348.005 553.77 348.238 553.177 348.238 552.39V545.66H350.078V556H348.608L348.418 554.02C348.292 554.54 348.075 554.96 347.768 555.28C347.468 555.6 347.105 555.837 346.678 555.99C346.258 556.137 345.805 556.207 345.318 556.2ZM357.084 545.46C357.824 545.46 358.49 545.603 359.084 545.89C359.677 546.17 360.16 546.57 360.534 547.09C360.914 547.61 361.15 548.223 361.244 548.93H359.604C359.544 548.57 359.404 548.24 359.184 547.94C358.97 547.64 358.687 547.4 358.334 547.22C357.98 547.04 357.567 546.95 357.094 546.95C356.207 546.95 355.487 547.27 354.934 547.91C354.38 548.55 354.104 549.53 354.104 550.85C354.104 552.043 354.357 553 354.864 553.72C355.377 554.433 356.13 554.79 357.124 554.79C357.597 554.79 358.007 554.7 358.354 554.52C358.707 554.333 358.99 554.09 359.204 553.79C359.417 553.483 359.554 553.157 359.614 552.81H361.224C361.137 553.503 360.904 554.103 360.524 554.61C360.144 555.117 359.657 555.51 359.064 555.79C358.477 556.063 357.817 556.2 357.084 556.2C356.157 556.2 355.334 555.997 354.614 555.59C353.9 555.183 353.34 554.583 352.934 553.79C352.527 552.997 352.324 552.023 352.324 550.87C352.324 549.79 352.507 548.847 352.874 548.04C353.247 547.227 353.787 546.593 354.494 546.14C355.207 545.687 356.07 545.46 357.084 545.46ZM368.666 547.01H366.336V553.44C366.336 553.807 366.373 554.077 366.446 554.25C366.526 554.417 366.656 554.523 366.836 554.57C367.023 554.617 367.276 554.64 367.596 554.64H368.726V555.88C368.599 555.927 368.406 555.967 368.146 556C367.893 556.033 367.576 556.05 367.196 556.05C366.483 556.05 365.929 555.953 365.536 555.76C365.143 555.567 364.866 555.28 364.706 554.9C364.553 554.52 364.476 554.053 364.476 553.5V547.01H362.796V545.66H364.526L364.976 542.65H366.336V545.65H368.666V547.01ZM372.37 551.26C372.37 551.913 372.476 552.507 372.69 553.04C372.91 553.567 373.24 553.987 373.68 554.3C374.126 554.613 374.683 554.77 375.35 554.77C376.01 554.77 376.576 554.617 377.05 554.31C377.53 554.003 377.836 553.56 377.97 552.98H379.72C379.593 553.68 379.313 554.27 378.88 554.75C378.446 555.23 377.923 555.593 377.31 555.84C376.696 556.08 376.056 556.2 375.39 556.2C374.423 556.2 373.573 555.99 372.84 555.57C372.106 555.15 371.533 554.547 371.12 553.76C370.706 552.973 370.5 552.03 370.5 550.93C370.5 549.843 370.686 548.89 371.06 548.07C371.433 547.25 371.973 546.61 372.68 546.15C373.393 545.69 374.25 545.46 375.25 545.46C376.223 545.46 377.046 545.67 377.72 546.09C378.393 546.51 378.903 547.103 379.25 547.87C379.603 548.63 379.78 549.533 379.78 550.58V551.26H372.37ZM372.38 550.01H378C378 549.417 377.9 548.883 377.7 548.41C377.5 547.93 377.193 547.553 376.78 547.28C376.373 547 375.86 546.86 375.24 546.86C374.593 546.86 374.056 547.017 373.63 547.33C373.21 547.637 372.893 548.033 372.68 548.52C372.473 549 372.373 549.497 372.38 550.01ZM386.049 556.2C384.709 556.2 383.646 555.74 382.859 554.82C382.072 553.9 381.679 552.557 381.679 550.79C381.679 549.717 381.836 548.78 382.149 547.98C382.469 547.18 382.942 546.56 383.569 546.12C384.196 545.68 384.976 545.46 385.909 545.46C386.402 545.46 386.839 545.523 387.219 545.65C387.606 545.777 387.939 545.937 388.219 546.13C388.499 546.323 388.726 546.523 388.899 546.73C389.079 546.937 389.212 547.127 389.299 547.3V541.14H391.159V556H389.749L389.549 553.88C389.482 554.08 389.376 554.313 389.229 554.58C389.082 554.84 388.876 555.097 388.609 555.35C388.342 555.597 387.999 555.8 387.579 555.96C387.166 556.12 386.656 556.2 386.049 556.2ZM386.379 554.78C387.426 554.78 388.172 554.463 388.619 553.83C389.072 553.19 389.299 552.147 389.299 550.7C389.292 549.893 389.189 549.207 388.989 548.64C388.796 548.073 388.489 547.643 388.069 547.35C387.656 547.05 387.106 546.9 386.419 546.9C385.566 546.9 384.872 547.203 384.339 547.81C383.806 548.417 383.539 549.38 383.539 550.7C383.539 551.993 383.779 552.997 384.259 553.71C384.746 554.423 385.452 554.78 386.379 554.78ZM404.663 545.66V547.01H402.153V556H400.293V547.01H398.113V545.66H400.293V544.06C400.293 543.24 400.503 542.617 400.923 542.19C401.343 541.757 401.97 541.54 402.803 541.54H404.753L404.763 542.85H403.213C402.793 542.85 402.506 542.963 402.353 543.19C402.2 543.417 402.123 543.76 402.123 544.22V545.66H404.663ZM406.948 556V545.66H408.708V547.65C408.881 547.157 409.125 546.75 409.438 546.43C409.751 546.103 410.108 545.86 410.508 545.7C410.915 545.54 411.335 545.46 411.768 545.46C411.921 545.46 412.071 545.47 412.218 545.49C412.365 545.51 412.478 545.543 412.558 545.59V547.38C412.458 547.333 412.328 547.303 412.168 547.29C412.015 547.27 411.885 547.26 411.778 547.26C411.365 547.233 410.978 547.26 410.618 547.34C410.258 547.413 409.941 547.543 409.668 547.73C409.395 547.917 409.178 548.163 409.018 548.47C408.865 548.77 408.788 549.137 408.788 549.57V556H406.948ZM418.597 556.2C417.644 556.2 416.81 555.997 416.097 555.59C415.384 555.177 414.83 554.573 414.437 553.78C414.044 552.987 413.847 552.017 413.847 550.87C413.847 549.79 414.03 548.843 414.397 548.03C414.764 547.217 415.3 546.587 416.007 546.14C416.72 545.687 417.584 545.46 418.597 545.46C419.55 545.46 420.377 545.67 421.077 546.09C421.784 546.503 422.33 547.113 422.717 547.92C423.104 548.727 423.297 549.71 423.297 550.87C423.297 551.923 423.117 552.85 422.757 553.65C422.404 554.45 421.877 555.077 421.177 555.53C420.484 555.977 419.624 556.2 418.597 556.2ZM418.597 554.74C419.217 554.74 419.74 554.583 420.167 554.27C420.594 553.957 420.917 553.507 421.137 552.92C421.357 552.333 421.467 551.637 421.467 550.83C421.467 550.09 421.37 549.427 421.177 548.84C420.984 548.247 420.674 547.777 420.247 547.43C419.827 547.083 419.277 546.91 418.597 546.91C417.97 546.91 417.44 547.067 417.007 547.38C416.574 547.687 416.244 548.133 416.017 548.72C415.797 549.307 415.687 550.01 415.687 550.83C415.687 551.557 415.787 552.217 415.987 552.81C416.187 553.403 416.5 553.873 416.927 554.22C417.354 554.567 417.91 554.74 418.597 554.74ZM425.718 556V545.66H427.498V547.16C427.784 546.707 428.178 546.31 428.678 545.97C429.178 545.63 429.828 545.46 430.628 545.46C431.001 545.46 431.381 545.523 431.768 545.65C432.161 545.777 432.521 545.967 432.848 546.22C433.174 546.473 433.428 546.783 433.608 547.15C433.928 546.643 434.361 546.237 434.908 545.93C435.454 545.617 436.071 545.46 436.758 545.46C437.118 545.46 437.494 545.517 437.888 545.63C438.281 545.737 438.644 545.93 438.978 546.21C439.318 546.483 439.594 546.867 439.808 547.36C440.021 547.847 440.128 548.473 440.128 549.24V556H438.268V549.42C438.268 548.793 438.168 548.31 437.968 547.97C437.768 547.623 437.504 547.38 437.178 547.24C436.858 547.1 436.514 547.03 436.148 547.03C435.828 547.03 435.488 547.093 435.128 547.22C434.768 547.347 434.461 547.56 434.208 547.86C433.954 548.16 433.828 548.57 433.828 549.09V556H431.988V548.88C431.988 548.473 431.878 548.133 431.658 547.86C431.444 547.587 431.174 547.38 430.848 547.24C430.528 547.1 430.208 547.03 429.888 547.03C429.534 547.03 429.178 547.1 428.818 547.24C428.464 547.38 428.164 547.603 427.918 547.91C427.678 548.21 427.558 548.603 427.558 549.09V556H425.718ZM448.534 559.3C447.928 559.3 447.511 559.257 447.284 559.17C447.058 559.083 446.944 559.04 446.944 559.04V557.84L447.994 557.86C448.381 557.873 448.701 557.847 448.954 557.78C449.208 557.713 449.411 557.623 449.564 557.51C449.718 557.397 449.834 557.27 449.914 557.13C450.001 556.99 450.071 556.857 450.124 556.73L450.484 555.75L446.444 545.66H448.314L451.364 553.64L454.394 545.66H456.204L451.844 556.78C451.578 557.433 451.278 557.943 450.944 558.31C450.618 558.677 450.251 558.933 449.844 559.08C449.444 559.227 449.008 559.3 448.534 559.3ZM461.917 556.2C460.964 556.2 460.131 555.997 459.417 555.59C458.704 555.177 458.151 554.573 457.757 553.78C457.364 552.987 457.167 552.017 457.167 550.87C457.167 549.79 457.351 548.843 457.717 548.03C458.084 547.217 458.621 546.587 459.327 546.14C460.041 545.687 460.904 545.46 461.917 545.46C462.871 545.46 463.697 545.67 464.397 546.09C465.104 546.503 465.651 547.113 466.037 547.92C466.424 548.727 466.617 549.71 466.617 550.87C466.617 551.923 466.437 552.85 466.077 553.65C465.724 554.45 465.197 555.077 464.497 555.53C463.804 555.977 462.944 556.2 461.917 556.2ZM461.917 554.74C462.537 554.74 463.061 554.583 463.487 554.27C463.914 553.957 464.237 553.507 464.457 552.92C464.677 552.333 464.787 551.637 464.787 550.83C464.787 550.09 464.691 549.427 464.497 548.84C464.304 548.247 463.994 547.777 463.567 547.43C463.147 547.083 462.597 546.91 461.917 546.91C461.291 546.91 460.761 547.067 460.327 547.38C459.894 547.687 459.564 548.133 459.337 548.72C459.117 549.307 459.007 550.01 459.007 550.83C459.007 551.557 459.107 552.217 459.307 552.81C459.507 553.403 459.821 553.873 460.247 554.22C460.674 554.567 461.231 554.74 461.917 554.74ZM472.682 556.2C472.142 556.193 471.632 556.117 471.152 555.97C470.678 555.817 470.258 555.593 469.892 555.3C469.525 555.007 469.235 554.643 469.022 554.21C468.815 553.77 468.712 553.26 468.712 552.68V545.66H470.562V552.49C470.562 553.163 470.768 553.71 471.182 554.13C471.602 554.55 472.232 554.76 473.072 554.76C473.832 554.76 474.442 554.563 474.902 554.17C475.368 553.77 475.602 553.177 475.602 552.39V545.66H477.442V556H475.972L475.782 554.02C475.655 554.54 475.438 554.96 475.132 555.28C474.832 555.6 474.468 555.837 474.042 555.99C473.622 556.137 473.168 556.207 472.682 556.2ZM480.444 556V545.66H482.204V547.65C482.377 547.157 482.621 546.75 482.934 546.43C483.247 546.103 483.604 545.86 484.004 545.7C484.411 545.54 484.831 545.46 485.264 545.46C485.417 545.46 485.567 545.47 485.714 545.49C485.861 545.51 485.974 545.543 486.054 545.59V547.38C485.954 547.333 485.824 547.303 485.664 547.29C485.511 547.27 485.381 547.26 485.274 547.26C484.861 547.233 484.474 547.26 484.114 547.34C483.754 547.413 483.437 547.543 483.164 547.73C482.891 547.917 482.674 548.163 482.514 548.47C482.361 548.77 482.284 549.137 482.284 549.57V556H480.444ZM186.39 584.2C185.723 584.2 185.133 584.083 184.62 583.85C184.107 583.61 183.703 583.267 183.41 582.82C183.123 582.373 182.98 581.833 182.98 581.2C182.98 580.053 183.38 579.2 184.18 578.64C184.98 578.08 186.263 577.78 188.03 577.74L189.88 577.69V576.88C189.88 576.247 189.69 575.747 189.31 575.38C188.93 575.007 188.34 574.82 187.54 574.82C186.947 574.827 186.423 574.967 185.97 575.24C185.523 575.513 185.233 575.96 185.1 576.58H183.47C183.51 575.907 183.7 575.34 184.04 574.88C184.38 574.413 184.853 574.06 185.46 573.82C186.073 573.58 186.797 573.46 187.63 573.46C188.53 573.46 189.277 573.587 189.87 573.84C190.47 574.093 190.917 574.467 191.21 574.96C191.51 575.453 191.66 576.06 191.66 576.78V584H190.08L189.95 582.06C189.55 582.867 189.04 583.427 188.42 583.74C187.807 584.047 187.13 584.2 186.39 584.2ZM186.95 582.87C187.297 582.87 187.64 582.807 187.98 582.68C188.327 582.553 188.643 582.383 188.93 582.17C189.217 581.95 189.443 581.707 189.61 581.44C189.783 581.167 189.873 580.887 189.88 580.6V578.83L188.34 578.86C187.553 578.873 186.893 578.953 186.36 579.1C185.833 579.247 185.437 579.477 185.17 579.79C184.91 580.103 184.78 580.513 184.78 581.02C184.78 581.6 184.98 582.053 185.38 582.38C185.787 582.707 186.31 582.87 186.95 582.87ZM198.939 573.46C199.679 573.46 200.346 573.603 200.939 573.89C201.532 574.17 202.016 574.57 202.389 575.09C202.769 575.61 203.006 576.223 203.099 576.93H201.459C201.399 576.57 201.259 576.24 201.039 575.94C200.826 575.64 200.542 575.4 200.189 575.22C199.836 575.04 199.422 574.95 198.949 574.95C198.062 574.95 197.342 575.27 196.789 575.91C196.236 576.55 195.959 577.53 195.959 578.85C195.959 580.043 196.212 581 196.719 581.72C197.232 582.433 197.986 582.79 198.979 582.79C199.452 582.79 199.862 582.7 200.209 582.52C200.562 582.333 200.846 582.09 201.059 581.79C201.272 581.483 201.409 581.157 201.469 580.81H203.079C202.992 581.503 202.759 582.103 202.379 582.61C201.999 583.117 201.512 583.51 200.919 583.79C200.332 584.063 199.672 584.2 198.939 584.2C198.012 584.2 197.189 583.997 196.469 583.59C195.756 583.183 195.196 582.583 194.789 581.79C194.382 580.997 194.179 580.023 194.179 578.87C194.179 577.79 194.362 576.847 194.729 576.04C195.102 575.227 195.642 574.593 196.349 574.14C197.062 573.687 197.926 573.46 198.939 573.46ZM209.72 573.46C210.46 573.46 211.127 573.603 211.72 573.89C212.314 574.17 212.797 574.57 213.17 575.09C213.55 575.61 213.787 576.223 213.88 576.93H212.24C212.18 576.57 212.04 576.24 211.82 575.94C211.607 575.64 211.324 575.4 210.97 575.22C210.617 575.04 210.204 574.95 209.73 574.95C208.844 574.95 208.124 575.27 207.57 575.91C207.017 576.55 206.74 577.53 206.74 578.85C206.74 580.043 206.994 581 207.5 581.72C208.014 582.433 208.767 582.79 209.76 582.79C210.234 582.79 210.644 582.7 210.99 582.52C211.344 582.333 211.627 582.09 211.84 581.79C212.054 581.483 212.19 581.157 212.25 580.81H213.86C213.774 581.503 213.54 582.103 213.16 582.61C212.78 583.117 212.294 583.51 211.7 583.79C211.114 584.063 210.454 584.2 209.72 584.2C208.794 584.2 207.97 583.997 207.25 583.59C206.537 583.183 205.977 582.583 205.57 581.79C205.164 580.997 204.96 580.023 204.96 578.87C204.96 577.79 205.144 576.847 205.51 576.04C205.884 575.227 206.424 574.593 207.13 574.14C207.844 573.687 208.707 573.46 209.72 573.46ZM220.492 584.2C219.538 584.2 218.705 583.997 217.992 583.59C217.278 583.177 216.725 582.573 216.332 581.78C215.938 580.987 215.742 580.017 215.742 578.87C215.742 577.79 215.925 576.843 216.292 576.03C216.658 575.217 217.195 574.587 217.902 574.14C218.615 573.687 219.478 573.46 220.492 573.46C221.445 573.46 222.272 573.67 222.972 574.09C223.678 574.503 224.225 575.113 224.612 575.92C224.998 576.727 225.192 577.71 225.192 578.87C225.192 579.923 225.012 580.85 224.652 581.65C224.298 582.45 223.772 583.077 223.072 583.53C222.378 583.977 221.518 584.2 220.492 584.2ZM220.492 582.74C221.112 582.74 221.635 582.583 222.062 582.27C222.488 581.957 222.812 581.507 223.032 580.92C223.252 580.333 223.362 579.637 223.362 578.83C223.362 578.09 223.265 577.427 223.072 576.84C222.878 576.247 222.568 575.777 222.142 575.43C221.722 575.083 221.172 574.91 220.492 574.91C219.865 574.91 219.335 575.067 218.902 575.38C218.468 575.687 218.138 576.133 217.912 576.72C217.692 577.307 217.582 578.01 217.582 578.83C217.582 579.557 217.682 580.217 217.882 580.81C218.082 581.403 218.395 581.873 218.822 582.22C219.248 582.567 219.805 582.74 220.492 582.74ZM231.256 584.2C230.716 584.193 230.206 584.117 229.726 583.97C229.252 583.817 228.832 583.593 228.466 583.3C228.099 583.007 227.809 582.643 227.596 582.21C227.389 581.77 227.286 581.26 227.286 580.68V573.66H229.136V580.49C229.136 581.163 229.342 581.71 229.756 582.13C230.176 582.55 230.806 582.76 231.646 582.76C232.406 582.76 233.016 582.563 233.476 582.17C233.942 581.77 234.176 581.177 234.176 580.39V573.66H236.016V584H234.546L234.356 582.02C234.229 582.54 234.012 582.96 233.706 583.28C233.406 583.6 233.042 583.837 232.616 583.99C232.196 584.137 231.742 584.207 231.256 584.2ZM239.018 584V573.66H240.808V575.16C240.975 574.873 241.205 574.603 241.498 574.35C241.798 574.097 242.158 573.893 242.578 573.74C243.005 573.587 243.495 573.51 244.048 573.51C244.702 573.51 245.302 573.64 245.848 573.9C246.402 574.16 246.842 574.567 247.168 575.12C247.502 575.667 247.668 576.373 247.668 577.24V584H245.818V577.42C245.818 576.613 245.605 576.017 245.178 575.63C244.758 575.237 244.212 575.04 243.538 575.04C243.072 575.04 242.635 575.117 242.228 575.27C241.822 575.417 241.492 575.643 241.238 575.95C240.985 576.25 240.858 576.63 240.858 577.09V584H239.018ZM255.326 575.01H252.996V581.44C252.996 581.807 253.033 582.077 253.106 582.25C253.186 582.417 253.316 582.523 253.496 582.57C253.683 582.617 253.936 582.64 254.256 582.64H255.386V583.88C255.26 583.927 255.066 583.967 254.806 584C254.553 584.033 254.236 584.05 253.856 584.05C253.143 584.05 252.59 583.953 252.196 583.76C251.803 583.567 251.526 583.28 251.366 582.9C251.213 582.52 251.136 582.053 251.136 581.5V575.01H249.456V573.66H251.186L251.636 570.65H252.996V573.65H255.326V575.01ZM264.593 573.66V584H262.803V573.66H264.593ZM264.633 569.55V571.47H262.743V569.55H264.633ZM271.516 584.2C270.796 584.2 270.126 584.09 269.506 583.87C268.893 583.643 268.383 583.293 267.976 582.82C267.57 582.34 267.313 581.73 267.206 580.99H268.886C268.98 581.397 269.146 581.737 269.386 582.01C269.633 582.277 269.94 582.48 270.306 582.62C270.673 582.753 271.073 582.82 271.506 582.82C272.2 582.82 272.76 582.69 273.186 582.43C273.613 582.17 273.826 581.77 273.826 581.23C273.826 580.85 273.713 580.547 273.486 580.32C273.266 580.087 272.923 579.917 272.456 579.81L270.316 579.28C269.483 579.08 268.816 578.767 268.316 578.34C267.816 577.913 267.566 577.317 267.566 576.55C267.56 575.943 267.703 575.41 267.996 574.95C268.29 574.49 268.73 574.127 269.316 573.86C269.903 573.593 270.633 573.46 271.506 573.46C272.626 573.46 273.53 573.713 274.216 574.22C274.91 574.72 275.27 575.457 275.296 576.43H273.666C273.6 575.937 273.376 575.547 272.996 575.26C272.623 574.967 272.12 574.82 271.486 574.82C270.826 574.82 270.29 574.953 269.876 575.22C269.463 575.48 269.256 575.887 269.256 576.44C269.256 576.807 269.403 577.097 269.696 577.31C269.99 577.517 270.423 577.69 270.996 577.83L273.066 578.35C273.546 578.477 273.94 578.643 274.246 578.85C274.56 579.057 274.806 579.287 274.986 579.54C275.173 579.793 275.303 580.06 275.376 580.34C275.456 580.613 275.496 580.877 275.496 581.13C275.496 581.763 275.336 582.31 275.016 582.77C274.703 583.223 274.25 583.577 273.656 583.83C273.07 584.077 272.356 584.2 271.516 584.2ZM293.979 578.49C293.979 579.657 293.789 580.67 293.409 581.53C293.029 582.383 292.412 583.043 291.559 583.51C290.712 583.97 289.589 584.2 288.189 584.2C286.782 584.2 285.656 583.967 284.809 583.5C283.962 583.027 283.349 582.357 282.969 581.49C282.596 580.623 282.409 579.59 282.409 578.39V569.54H285.379V578.61C285.379 579.69 285.639 580.48 286.159 580.98C286.679 581.473 287.356 581.72 288.189 581.72C288.742 581.72 289.232 581.613 289.659 581.4C290.086 581.18 290.419 580.843 290.659 580.39C290.906 579.93 291.029 579.337 291.029 578.61V569.54H293.979V578.49ZM302.312 584.2C301.598 584.2 300.898 584.11 300.212 583.93C299.525 583.75 298.898 583.48 298.332 583.12C297.765 582.76 297.295 582.31 296.922 581.77C296.555 581.23 296.335 580.597 296.262 579.87H299.252C299.352 580.31 299.542 580.68 299.822 580.98C300.102 581.28 300.455 581.51 300.882 581.67C301.308 581.83 301.782 581.91 302.302 581.91C302.835 581.91 303.322 581.843 303.762 581.71C304.202 581.577 304.555 581.377 304.822 581.11C305.088 580.837 305.222 580.497 305.222 580.09C305.222 579.723 305.112 579.423 304.892 579.19C304.678 578.957 304.388 578.767 304.022 578.62C303.655 578.473 303.238 578.353 302.772 578.26L300.272 577.75C299.178 577.543 298.312 577.11 297.672 576.45C297.032 575.783 296.702 574.897 296.682 573.79C296.675 572.883 296.915 572.1 297.402 571.44C297.895 570.773 298.562 570.26 299.402 569.9C300.248 569.54 301.195 569.36 302.242 569.36C303.488 569.36 304.535 569.557 305.382 569.95C306.235 570.337 306.882 570.863 307.322 571.53C307.768 572.19 307.998 572.927 308.012 573.74H305.082C305.028 573.233 304.875 572.83 304.622 572.53C304.368 572.23 304.042 572.013 303.642 571.88C303.248 571.747 302.798 571.68 302.292 571.68C301.905 571.68 301.552 571.723 301.232 571.81C300.918 571.897 300.652 572.02 300.432 572.18C300.212 572.333 300.042 572.517 299.922 572.73C299.802 572.943 299.742 573.183 299.742 573.45C299.742 573.87 299.882 574.21 300.162 574.47C300.442 574.73 300.965 574.943 301.732 575.11L304.212 575.62C305.098 575.793 305.802 576.05 306.322 576.39C306.848 576.73 307.242 577.113 307.502 577.54C307.768 577.967 307.942 578.403 308.022 578.85C308.108 579.29 308.152 579.697 308.152 580.07C308.152 580.85 307.905 581.553 307.412 582.18C306.925 582.8 306.245 583.293 305.372 583.66C304.498 584.02 303.478 584.2 302.312 584.2ZM320.437 584.2C318.704 584.2 317.297 583.853 316.217 583.16C315.137 582.46 314.517 581.383 314.357 579.93L317.397 579.87C317.557 580.53 317.901 581.033 318.427 581.38C318.961 581.72 319.627 581.89 320.427 581.89C320.907 581.89 321.331 581.813 321.697 581.66C322.071 581.5 322.364 581.287 322.577 581.02C322.791 580.747 322.897 580.437 322.897 580.09C322.897 579.557 322.727 579.16 322.387 578.9C322.047 578.633 321.524 578.42 320.817 578.26L318.447 577.75C317.347 577.53 316.464 577.093 315.797 576.44C315.137 575.78 314.801 574.897 314.787 573.79C314.781 572.883 315.024 572.1 315.517 571.44C316.017 570.773 316.694 570.26 317.547 569.9C318.407 569.54 319.371 569.36 320.437 569.36C321.531 569.36 322.474 569.557 323.267 569.95C324.067 570.337 324.681 570.86 325.107 571.52C325.541 572.173 325.751 572.897 325.737 573.69L322.787 573.74C322.694 573.1 322.481 572.597 322.147 572.23C321.814 571.863 321.261 571.68 320.487 571.68C320.087 571.68 319.731 571.723 319.417 571.81C319.104 571.897 318.834 572.02 318.607 572.18C318.381 572.333 318.207 572.517 318.087 572.73C317.974 572.943 317.917 573.183 317.917 573.45C317.917 573.87 318.057 574.203 318.337 574.45C318.624 574.69 319.161 574.913 319.947 575.12L322.277 575.69C323.591 576.003 324.537 576.54 325.117 577.3C325.704 578.06 325.997 578.983 325.997 580.07C325.997 580.903 325.767 581.63 325.307 582.25C324.854 582.87 324.211 583.35 323.377 583.69C322.544 584.03 321.564 584.2 320.437 584.2ZM319.187 567.47H321.717V570.07H319.187V567.47ZM319.137 583.31H321.657V585.91H319.137V583.31ZM330.42 584V573.17H327.84V571.52C328.667 571.52 329.334 571.443 329.84 571.29C330.354 571.13 330.737 570.903 330.99 570.61C331.244 570.31 331.394 569.953 331.44 569.54H333.38V584H330.42ZM341.995 569.34C343.715 569.34 345.072 569.983 346.065 571.27C347.058 572.55 347.555 574.393 347.555 576.8C347.555 579.193 347.065 581.03 346.085 582.31C345.105 583.583 343.742 584.22 341.995 584.22C340.242 584.22 338.872 583.583 337.885 582.31C336.905 581.037 336.415 579.203 336.415 576.81C336.415 575.21 336.642 573.853 337.095 572.74C337.548 571.627 338.192 570.783 339.025 570.21C339.858 569.63 340.848 569.34 341.995 569.34ZM341.995 581.83C342.855 581.83 343.485 581.447 343.885 580.68C344.285 579.907 344.485 578.617 344.485 576.81C344.485 574.963 344.282 573.64 343.875 572.84C343.468 572.04 342.838 571.64 341.985 571.64C341.132 571.64 340.495 572.043 340.075 572.85C339.662 573.657 339.455 574.977 339.455 576.81C339.455 578.61 339.662 579.897 340.075 580.67C340.488 581.443 341.128 581.83 341.995 581.83ZM355.798 569.54H358.668V578.35H360.898V580.8H358.668V584H355.858L355.868 580.8H349.208V578.4L355.798 569.54ZM351.908 578.35H355.868V573.05L351.908 578.35ZM362.463 584V580.82H365.663V584H362.463ZM373.053 584.22C372.153 584.22 371.313 584.047 370.533 583.7C369.753 583.353 369.117 582.867 368.623 582.24C368.13 581.607 367.853 580.867 367.793 580.02H370.573C370.693 580.58 370.96 581.037 371.373 581.39C371.787 581.737 372.307 581.91 372.933 581.91C373.627 581.91 374.233 581.747 374.753 581.42C375.28 581.093 375.673 580.573 375.933 579.86C376.2 579.147 376.293 578.213 376.213 577.06C376.027 577.413 375.767 577.723 375.433 577.99C375.107 578.25 374.723 578.453 374.283 578.6C373.843 578.74 373.353 578.81 372.813 578.81C371.833 578.81 370.963 578.627 370.203 578.26C369.45 577.887 368.857 577.36 368.423 576.68C367.997 575.993 367.783 575.18 367.783 574.24C367.783 573.293 368.01 572.45 368.463 571.71C368.917 570.97 369.55 570.39 370.363 569.97C371.177 569.55 372.13 569.34 373.223 569.34C374.45 569.34 375.507 569.633 376.393 570.22C377.287 570.8 377.97 571.627 378.443 572.7C378.923 573.767 379.163 575.023 379.163 576.47C379.163 578.197 378.917 579.637 378.423 580.79C377.937 581.937 377.237 582.797 376.323 583.37C375.41 583.937 374.32 584.22 373.053 584.22ZM373.313 576.49C373.72 576.49 374.113 576.4 374.493 576.22C374.88 576.033 375.197 575.8 375.443 575.52C375.69 575.24 375.813 574.95 375.813 574.65C375.82 574.003 375.717 573.45 375.503 572.99C375.297 572.523 375.003 572.167 374.623 571.92C374.25 571.673 373.813 571.55 373.313 571.55C372.853 571.55 372.443 571.657 372.083 571.87C371.723 572.083 371.44 572.383 371.233 572.77C371.027 573.157 370.923 573.603 370.923 574.11C370.923 574.863 371.143 575.45 371.583 575.87C372.023 576.283 372.6 576.49 373.313 576.49ZM386.448 569.34C388.168 569.34 389.525 569.983 390.518 571.27C391.512 572.55 392.008 574.393 392.008 576.8C392.008 579.193 391.518 581.03 390.538 582.31C389.558 583.583 388.195 584.22 386.448 584.22C384.695 584.22 383.325 583.583 382.338 582.31C381.358 581.037 380.868 579.203 380.868 576.81C380.868 575.21 381.095 573.853 381.548 572.74C382.002 571.627 382.645 570.783 383.478 570.21C384.312 569.63 385.302 569.34 386.448 569.34ZM386.448 581.83C387.308 581.83 387.938 581.447 388.338 580.68C388.738 579.907 388.938 578.617 388.938 576.81C388.938 574.963 388.735 573.64 388.328 572.84C387.922 572.04 387.292 571.64 386.438 571.64C385.585 571.64 384.948 572.043 384.528 572.85C384.115 573.657 383.908 574.977 383.908 576.81C383.908 578.61 384.115 579.897 384.528 580.67C384.942 581.443 385.582 581.83 386.448 581.83ZM393.979 584V581.64H396.179V584H393.979Z" fill="#36536B"/>
</g>
</g>
<defs>
<filter id="filter0_d_18_2" x="1.13599" y="1.13916" width="835.299" height="1317.72" filterUnits="userSpaceOnUse" color-interpolation-filters="sRGB">
<feFlood flood-opacity="0" result="BackgroundImageFix"/>
<feColorMatrix in="SourceAlpha" type="matrix" values="0 0 0 0 0 0 0 0 0 0 0 0 0 0 0 0 0 0 127 0" result="hardAlpha"/>
<feOffset dx="25" dy="25"/>
<feGaussianBlur stdDeviation="40"/>
<feColorMatrix type="matrix" values="0 0 0 0 0.212302 0 0 0 0 0.32521 0 0 0 0 0.419299 0 0 0 0.300727 0"/>
<feBlend mode="normal" in2="BackgroundImageFix" result="effect1_dropShadow_18_2"/>
<feBlend mode="normal" in="SourceGraphic" in2="effect1_dropShadow_18_2" result="shape"/>
</filter>
<filter id="filter1_d_18_2" x="140" y="434" width="496" height="234" filterUnits="userSpaceOnUse" color-interpolation-filters="sRGB">
<feFlood flood-opacity="0" result="BackgroundImageFix"/>
<feColorMatrix in="SourceAlpha" type="matrix" values="0 0 0 0 0 0 0 0 0 0 0 0 0 0 0 0 0 0 127 0" result="hardAlpha"/>
<feMorphology radius="10" operator="erode" in="SourceAlpha" result="effect1_dropShadow_18_2"/>
<feOffset dx="10" dy="10"/>
<feGaussianBlur stdDeviation="12.5"/>
<feColorMatrix type="matrix" values="0 0 0 0 0.212302 0 0 0 0 0.32521 0 0 0 0 0.419299 0 0 0 0.25 0"/>
<feBlend mode="normal" in2="BackgroundImageFix" result="effect1_dropShadow_18_2"/>
<feBlend mode="normal" in="SourceGraphic" in2="effect1_dropShadow_18_2" result="shape"/>
</filter>
<linearGradient id="paint0_linear_18_2" x1="126.03" y1="110" x2="126.03" y2="134.648" gradientUnits="userSpaceOnUse">
<stop stop-color="#454545"/>
<stop offset="0.226279" stop-color="#999999"/>
<stop offset="1" stop-color="white"/>
</linearGradient>
<linearGradient id="paint1_linear_18_2" x1="626.207" y1="281.495" x2="607.285" y2="281.495" gradientUnits="userSpaceOnUse">
<stop stop-color="white" stop-opacity="0.01"/>
<stop offset="0.222178" stop-color="#BABABA"/>
<stop offset="0.54678" stop-color="white" stop-opacity="0.01"/>
<stop offset="1" stop-color="white" stop-opacity="0.01"/>
</linearGradient>
<linearGradient id="paint2_linear_18_2" x1="111.136" y1="280.973" x2="130.088" y2="280.973" gradientUnits="userSpaceOnUse">
<stop stop-color="white" stop-opacity="0.01"/>
<stop offset="0.222178" stop-color="#BABABA"/>
<stop offset="0.54678" stop-color="white" stop-opacity="0.01"/>
<stop offset="1" stop-color="white" stop-opacity="0.01"/>
</linearGradient>
<linearGradient id="paint3_linear_18_2" x1="137.814" y1="134.889" x2="137.814" y2="1057.65" gradientUnits="userSpaceOnUse">
<stop stop-color="#9CB6CD"/>
<stop offset="0.420564" stop-color="#9AB3CA"/>
<stop offset="0.716592" stop-color="#557496"/>
<stop offset="1" stop-color="#475178"/>
</linearGradient>
<clipPath id="clip0_18_2">
<rect width="233" height="465" fill="white" transform="matrix(2 0 0 2 136.148 134.889)"/>
</clipPath>
<clipPath id="clip1_18_2">
<rect width="218" height="87" fill="white" transform="matrix(2 0 0 2 150 444)"/>
</clipPath>
<clipPath id="clip2_18_2">
<rect width="187" height="11" fill="white" transform="matrix(2 0 0 2 182 476)"/>
</clipPath>
</defs>
</svg>
